STARTFONT 2.3
FONT -FontForge-Permanent Marker-Book-R-Normal--24-240-72-72-P-139-ISO10646-1
SIZE 24 72 72  4
FONTBOUNDINGBOX 37 35 -7 -8
COMMENT "Generated by fontforge, http://fontforge.sourceforge.net"
COMMENT "Copyright (c) 2010 by Font Diner, Inc. All rights reserved."
STARTPROPERTIES 40
FOUNDRY "FontForge"
FAMILY_NAME "Permanent Marker"
WEIGHT_NAME "Book"
SLANT "R"
SETWIDTH_NAME "Normal"
ADD_STYLE_NAME ""
PIXEL_SIZE 24
POINT_SIZE 240
RESOLUTION_X 72
RESOLUTION_Y 72
SPACING "P"
AVERAGE_WIDTH 139
CHARSET_REGISTRY "ISO10646"
CHARSET_ENCODING "1"
FONTNAME_REGISTRY ""
CHARSET_COLLECTIONS "ISO10646-1"
BITS_PER_PIXEL 4
FONT_NAME "PermanentMarker-Regular"
FACE_NAME "Permanent Marker Regular"
COPYRIGHT "Copyright (c) 2010 by Font Diner, Inc. All rights reserved."
FONT_VERSION "1.001"
FONT_ASCENT 19
FONT_DESCENT 5
UNDERLINE_POSITION -2
UNDERLINE_THICKNESS 2
X_HEIGHT 14
CAP_HEIGHT 17
RAW_ASCENT 799
RAW_DESCENT 200
NORM_SPACE 9
RELATIVE_WEIGHT 40
RELATIVE_SETWIDTH 50
SUPERSCRIPT_X 0
SUPERSCRIPT_Y 11
SUPERSCRIPT_SIZE 15
SUBSCRIPT_X 0
SUBSCRIPT_Y 3
SUBSCRIPT_SIZE 15
AVG_LOWERCASE_WIDTH 137
AVG_UPPERCASE_WIDTH 163
ENDPROPERTIES
CHARS 230
STARTCHAR space
ENCODING 32
SWIDTH 370 0
DWIDTH 9 0
BBX 1 1 0 0
BITMAP
00
ENDCHAR
STARTCHAR exclam
ENCODING 33
SWIDTH 260 0
DWIDTH 6 0
BBX 7 19 0 -1
BITMAP
00007700
0006FE20
000BFF60
000FFF50
004FFF40
004FFF10
008FFC00
00EFFA00
01FFF700
03FFF500
04FFF100
04FFA000
00481000
00000000
09730000
8FFF3000
CFFF1000
6FFB0000
07800000
ENDCHAR
STARTCHAR quotedbl
ENCODING 34
SWIDTH 492 0
DWIDTH 12 0
BBX 11 12 2 6
BITMAP
01B61007A300
06FFC10DFF70
0BFFF43FFF90
2FFFD08FFF40
5FFF70DFFD00
9FFF22FFF700
CFFE06FFF200
EFFA09FFF100
FFF70CFFA000
FFF20EFF6000
7FC007FF3000
073001940000
ENDCHAR
STARTCHAR numbersign
ENCODING 35
SWIDTH 703 0
DWIDTH 17 0
BBX 18 18 0 0
BITMAP
000000020000020000
0000002E80006F4000
0000008FF200DFB000
000000DFF704FFF100
000003FFF408FFE000
00367BFFFCCEFFD820
00EFFFFFFFFFFFFFD3
01FFFFFFFFFFFFFEB2
008BCFFC44DFF71000
0000CFF702FFF20000
0113FFF98BFFF92000
2EFFFFFFFFFFFFF500
4FFFFFFFFFFFFFC200
1DEFFF85BFFE320000
00AFFC01EFF7000000
02FFF807FFF3000000
04FFF309FFD0000000
009E8002BE40000000
ENDCHAR
STARTCHAR dollar
ENCODING 36
SWIDTH 493 0
DWIDTH 12 0
BBX 14 19 0 -1
BITMAP
00000001600000
00000008F40000
0000000EFA0000
0000004FFE5300
000027DFFFFF60
017CFFFFFFFFE1
0CFFFFFCABABA1
3FFFFF60000000
2FFFFFFD300000
049CEFFFB00000
0000016CF70000
0000000BFB0000
000005CFF90000
0289EFFFE20000
06FFFFFB200000
04FFFFD0000000
003EFF60000000
000CFE20000000
00017200000000
ENDCHAR
STARTCHAR percent
ENCODING 37
SWIDTH 643 0
DWIDTH 15 0
BBX 15 18 1 0
BITMAP
0000100000000000
0004D90000001890
006FFE000001BFA0
07FFFF40001BFF70
3FFCEFC001BFFE20
AFF6CFF10AFFD200
CFFFFFE1AFFD2000
7FFFFC4AFFC10000
046520BFFC100000
00000AFFC1000000
0001BFFC13C70000
001CFFB15EFD0000
02DFFB16FFFF2000
0CFFA03FFDEFA000
6FFC00AFF4CFF100
CFF500CFFFFFF100
FFF2009FFFFE5000
AD60000687400000
ENDCHAR
STARTCHAR ampersand
ENCODING 38
SWIDTH 599 0
DWIDTH 14 0
BBX 14 13 0 1
BITMAP
00000000200000
00000008F60000
0000003FFE1000
006B609FFF0000
08FFFDEFFF1000
5FFFFFFFFE8620
DFFAEFFFFFFFF5
AFFFFFFFFFFFFC
18EFFFFFF98740
00123FFFE00000
00001FFFB00000
00002FFF600000
00001BFC000000
ENDCHAR
STARTCHAR quotesingle
ENCODING 39
SWIDTH 265 0
DWIDTH 6 0
BBX 6 12 2 6
BITMAP
01B610
06FFC1
0BFFF4
2FFFD0
5FFF70
9FFF20
CFFE00
EFFA00
FFF700
FFF200
7FC000
073000
ENDCHAR
STARTCHAR parenleft
ENCODING 40
SWIDTH 361 0
DWIDTH 9 0
BBX 12 26 0 -5
BITMAP
000000000120
000000002DF4
00000003EFF2
0000004EFFF2
000005FFFFD0
00003FFFFE30
0001DFFFB100
0009FFFC1000
003FFFF20000
00AFFF900000
01FFFD100000
04FFF9000000
05FFF4000000
09FFE0000000
1FFFA0000000
2FFF80000000
3FFF70000000
3FFF80000000
4FFF90000000
2FFFB0000000
0DFFE0000000
0AFFF4000000
03FFF2000000
006FF2000000
000AF6000000
000021000000
ENDCHAR
STARTCHAR parenright
ENCODING 41
SWIDTH 361 0
DWIDTH 9 0
BBX 11 26 -3 -5
BITMAP
000000200000
000000ED2000
000000BFB000
000000BFF900
000000CFFF20
0000009FFF40
0000005FFF80
0000003FFFA0
0000001FFFA0
0000001FFF90
0000002FFF90
0000003FFF80
0000007FFF10
000000CFFC00
000002FFFA00
000008FFF700
00002FFFF200
0000AFFFA000
0005FFFE2000
005FFFF60000
0AFFFFA00000
6FFFFB100000
BFFFA1000000
BFF900000000
DF8000000000
230000000000
ENDCHAR
STARTCHAR asterisk
ENCODING 42
SWIDTH 673 0
DWIDTH 16 0
BBX 16 13 1 5
BITMAP
0000045000025000
00007FF302BFE000
0000FFFD3DFF8000
0000BFFFFFFD1000
00001DFFFFF84200
19BCEFFFFFFFFFD3
2FFFFFFFFFFFFFFC
0CFFFFFFFFFB7630
01536FFFFFFA0000
0000DFFD9FFF1000
0008FFF50CFF2000
000CFFB002ED0000
0000330000120000
ENDCHAR
STARTCHAR plus
ENCODING 43
SWIDTH 579 0
DWIDTH 14 0
BBX 13 13 0 0
BITMAP
0000004A100000
000003FF800000
000008FFD00000
00000DFFC00000
00002FFFC10000
4ABEFFFFFFE800
9FFFFFFFFFFF80
5FFFFFFFFFEB40
0796FFFD100000
0003FFFA000000
0004FFF6000000
0005FFE1000000
00004830000000
ENDCHAR
STARTCHAR comma
ENCODING 44
SWIDTH 204 0
DWIDTH 5 0
BBX 6 9 -3 -5
BITMAP
000400
009FD6
00DFFD
02FFFD
07FFF8
1EFFE1
8FFF70
1AF900
001000
ENDCHAR
STARTCHAR hyphen
ENCODING 45
SWIDTH 609 0
DWIDTH 15 0
BBX 13 5 0 4
BITMAP
00000112210000
2ABDFFFFFFEA00
5FFFFFFFFFFFC0
2FFFFFFFFFEC70
05964221100000
ENDCHAR
STARTCHAR period
ENCODING 46
SWIDTH 228 0
DWIDTH 5 0
BBX 5 5 -1 -1
BITMAP
068400
5FFF70
8FFF50
3FFE10
059200
ENDCHAR
STARTCHAR slash
ENCODING 47
SWIDTH 401 0
DWIDTH 10 0
BBX 13 19 -1 -1
BITMAP
00000000000100
00000000005E40
0000000004FF60
000000002EFF50
00000001CFFF30
00000008FFF500
0000005FFF7000
000003EFF90000
00001DFFB00000
0000AFFD100000
0009FFE3000000
007FFF50000000
05FFF700000000
2FFF9000000000
8FFC0000000000
BFF80000000000
CFF70000000000
8FE20000000000
03300000000000
ENDCHAR
STARTCHAR zero
ENCODING 48
SWIDTH 686 0
DWIDTH 16 0
BBX 16 20 0 -1
BITMAP
0000000000200000
0000000019F70000
00000001DFFF5000
0000001CFFFFE000
000003DFFFFFB000
00002DFFFFFFC000
0002DFFFFFFFF200
000CFFFFDAEFF900
007FFFFA009FFF10
02EFFFC0003FFF80
0AFFFD10000BFFD0
1FFFF5000006FFF1
6FFFC0000006FFF6
8FFF6000005EFFF7
9FFF50004AFFFFF6
9FFFFCDFFFFFFFE1
4FFFFFFFFFFFFD20
0AFFFFFFFFFFB100
01BFFFFFFE920000
0004678620000000
ENDCHAR
STARTCHAR one
ENCODING 49
SWIDTH 322 0
DWIDTH 8 0
BBX 7 19 0 -1
BITMAP
00350000
00BF9000
00DFF800
00CFFF10
00AFFF40
005FFF60
004FFF70
004FFF80
007FFF70
00BFFF50
01FFFF20
06FFFD00
0BFFF900
1FFFF400
4FFFE100
6FFF8000
4FFF6000
0CFC1000
01110000
ENDCHAR
STARTCHAR two
ENCODING 50
SWIDTH 650 0
DWIDTH 16 0
BBX 16 18 1 0
BITMAP
0003566530000000
0BFFFFFFFE810000
5FFFFFFFFFF80000
4FFFFFFFFFFF8000
2FFFFFDDFFFFF200
03673001CFFFF500
0000002DFFFFE100
000004EFFFFF4000
00007FFFFFE40000
0008FFFFFC200000
006FFFFF90000000
05FFFFF800000000
2EFFFF4000236A91
7FFFFB79BEFFFFF7
8FFFFFFFFFFFFFFE
7FFFFFFFFFFFFFF9
3FFFFFFFFFFDA710
06CEFDB863100000
ENDCHAR
STARTCHAR three
ENCODING 51
SWIDTH 561 0
DWIDTH 13 0
BBX 15 18 -1 0
BITMAP
0000000012221000
00147ADFFFFFC000
07FFFFFFFFFFF800
0EFFFFFFFFFFFF20
3FFFFFFFFFFFFE10
2FFFFFFFFFFFF600
0364BFFFFFFC2000
0002FFFFFE500000
0004FFFFFFA10000
0003FFFFFFFC1000
00004CFFFFFF9000
00000038DFFFF200
000000001CFFF700
00433469DFFFF600
00EFFFFFFFFFE100
03FFFFFFFFFD4000
07FFFFFFFD610000
02ACCBA740000000
ENDCHAR
STARTCHAR four
ENCODING 52
SWIDTH 582 0
DWIDTH 14 0
BBX 13 19 1 -1
BITMAP
00000002E30000
00000006FD0000
18000008FF5000
AF90000CFF8000
BFF2000CFF6000
AFF8000EFF5000
8FFB000FFFA910
5FFFAACFFFFF90
3FFFFFFFFFFFA0
1EFFFFFFFFFE40
04FFFFFFFB5100
00257DFFD00000
00000EFF700000
00002FFF200000
00004FFD000000
00004FFF200000
00001FFFB00000
00000AFFC00000
0000019A500000
ENDCHAR
STARTCHAR five
ENCODING 53
SWIDTH 580 0
DWIDTH 14 0
BBX 15 18 1 0
BITMAP
0000011000000000
00018EC100000000
004EFFFD89ABDB10
07FFFFFFFFFFFF40
5FFFFFFFFFFFFFC0
AFFFFFFFFFFFFE80
BFFFFFFEB8742000
BFFFFF6000000000
6FFFFFF900000000
0AFFFFFFA0000000
004BFFFFF7000000
000027EFFF200000
0000001EFF900000
375446BFFFD00000
BFFFFFFFFFC00000
8FFFFFFFFF500000
0DFFFFFFF7000000
0179CC9720000000
ENDCHAR
STARTCHAR six
ENCODING 54
SWIDTH 500 0
DWIDTH 12 0
BBX 13 19 -1 -1
BITMAP
00000002520000
000000AFFB0000
000009FFFF1000
00004FFFFF7000
0000DFFFEA1000
0006FFFD200000
000DFFE2000000
003FFF80000000
00BFFF20000000
02FFFC07DE8000
06FFF5CFFFF500
0BFFC9FFFFFE20
1FFF7FFFFFFF40
2FFF5FFFFFFF40
3FFFFFFFFFFB00
3FFFFFFFFFC100
0EFFFFFFFA0000
04EFFFA7200000
00144100000000
ENDCHAR
STARTCHAR seven
ENCODING 55
SWIDTH 576 0
DWIDTH 14 0
BBX 15 18 0 0
BITMAP
0024431000000000
2DFFFFFDA5000000
9FFFFFFFFF800000
AFFFFFFFFFF40000
8FFFFFFFFFFC0000
13100237EFFE0000
000000007FFD0000
00000000AFFC0000
00000045EFFEA950
006BEFFFFFFFFFC0
04FFFFFFFFFFFFC0
06FFFFFFFFFDB810
01DFFFFFFA100000
00134FFFE2000000
00009FFF50000000
0000DFFC00000000
0000FFF500000000
0000AED000000000
ENDCHAR
STARTCHAR eight
ENCODING 56
SWIDTH 537 0
DWIDTH 13 0
BBX 13 19 1 -1
BITMAP
00016762002100
005EFFFF30DD10
05FFFFFFB4FF70
1EFFFFFFF4FFC0
5FFFB8FFF4FFE0
8FFF109EFEFFE0
7FFF403AFFFF80
2FFFFCFFFFFA00
09FFFFFFFF7000
01FFFFFFA30000
07FFFFFD000000
0DFFFFFF200000
1FFE3CFF800000
1FFD04FFD00000
1FFFCDFFF10000
0BFFFFFFC00000
03FFFFFF700000
005DFFE7000000
00003310000000
ENDCHAR
STARTCHAR nine
ENCODING 57
SWIDTH 529 0
DWIDTH 13 0
BBX 12 19 1 -1
BITMAP
000001673000
0002AFFFE300
005EFFFFFD10
06FFFFFFFF80
2FFFFF9AFFE0
AFFFB34AFFF2
EFFFFFFFFFFA
FFFFFFFFFFFC
DFFFFFFFFFD2
4CFFFCAFFF50
0022002FFE00
0000006FFB00
0000009FF800
000000CFF500
000000FFF200
000002FFF000
000003FFB000
000003FF5000
000000440000
ENDCHAR
STARTCHAR colon
ENCODING 58
SWIDTH 241 0
DWIDTH 6 0
BBX 6 12 -1 -1
BITMAP
002510
01EFE6
03FFF9
01EFFB
007F81
000100
000000
068400
5FFF70
8FFF50
3FFE10
059200
ENDCHAR
STARTCHAR semicolon
ENCODING 59
SWIDTH 245 0
DWIDTH 6 0
BBX 7 16 -2 -5
BITMAP
00025100
001EFE70
002FFFB0
001DFFC0
0005F910
00001000
00000000
00230000
00DFC300
02FFF900
06FFF900
0BFFF400
4FFFB000
CFFF3000
3CF60000
00100000
ENDCHAR
STARTCHAR less
ENCODING 60
SWIDTH 625 0
DWIDTH 15 0
BBX 15 12 0 0
BITMAP
0000000000025400
00000000029FFF80
00000003AFFFFFA0
000029DFFFFFF910
288EFFFFFFE82000
DFFFFFFFA5000000
CFFFFFC200000000
3BFFFFFFA5000000
005CFFFFFFD30000
000049FFFFFD2000
000000148DFF9000
0000000000351000
ENDCHAR
STARTCHAR equal
ENCODING 61
SWIDTH 586 0
DWIDTH 14 0
BBX 14 9 0 2
BITMAP
0145799AAB9830
0AFFFFFFFFFFD2
0CFFFFFFFFFFD2
07DB8766553200
00000000000000
2679ACDEEFD300
BFFFFFFFFFFC00
BFFFFFFEDCA200
48742001000000
ENDCHAR
STARTCHAR greater
ENCODING 62
SWIDTH 634 0
DWIDTH 15 0
BBX 15 12 -1 0
BITMAP
0026200000000000
00CFFC8410000000
002EFFFFE9300000
0004DFFFFFFC4000
000006BFFFFFFA20
00000003DFFFFF90
000027CFFFFFFFA0
004AFFFFFFFC7610
3BFFFFFFC7100000
EFFFFE8200000000
BFFE710000000000
0441000000000000
ENDCHAR
STARTCHAR question
ENCODING 63
SWIDTH 556 0
DWIDTH 13 0
BBX 14 19 1 -1
BITMAP
00068987520000
01CFFFFFFFEA51
0AFFFFFFFFFFF9
0EFFFFFFFFFFFB
07FD99ADEFFFFC
001000006FFFF8
00000019FFFFF3
000005EFFFFF60
00009FFFFFC400
000AFFFFD50000
007FFFF8100000
00CFFC10000000
006BA100000000
00000000000000
29820000000000
9FFE1000000000
BFFF1000000000
5FFD2000000000
08700000000000
ENDCHAR
STARTCHAR at
ENCODING 64
SWIDTH 732 0
DWIDTH 18 0
BBX 19 19 -1 -1
BITMAP
0000000003A991000000
0000000008FFFE500000
000000000DFFFFF40000
00000001BFFFFFFA0000
0000004EFFE51AFF6000
000009FFFC2001DFE100
0001BFFF9024CA6FF800
001DFFF606EFFD0DFE00
00CFFF72BFFFFA08FF10
08FFF83EFFDFF608FF00
1EFFB1DFF83FF40AFD00
3FFF24FFF67FF84EF800
1FFA01EFFFFFFFFF9000
0EF5006FFFFFEEE60000
0CFD8101566410000000
03EFFD95443347500000
003CFFFFFFFFFFE30000
00006DFFFFFFFFF80000
00000013577786400000
ENDCHAR
STARTCHAR A
ENCODING 65
SWIDTH 702 0
DWIDTH 17 0
BBX 18 19 -1 -1
BITMAP
000000000030000000
0000000005FD810000
000000003EFFF70000
00000057EFFFFA0000
000005FFFFFFFB0000
00000DFFFFFFFE0000
00005FFFFFFFFF2000
0000DFFFF6BFFF5000
0004FFFFA08FFF9000
000BFFFE104FFFEB50
003FFFFA78AFFFFFFA
00AFFFFFFFFFFFFFF5
03FFFFCFFFFFFFFE30
09FFFB4FFFFDFFFE00
1EFFF3045300EFFF00
6FFFD000005CFFFE00
2FFF9000002DFFF600
09FB20000007FE6000
001000000000200000
ENDCHAR
STARTCHAR B
ENCODING 66
SWIDTH 686 0
DWIDTH 16 0
BBX 17 19 -1 -1
BITMAP
000000146787500000
0016ACFFFFFFFC2000
08FFFFFFFFFFFFE300
8FFFFFFFFFDEFFFB00
5FFFFFE8302DFFFE00
0AFFCFD303DFFFFA00
00694FFEAFFFFFD100
00007FFFFFFFFE2000
0000AFFFFFFFF50000
0001EFFFFFFFFE4000
0004FFFFFC99DFF500
0009FFFA10000DFF20
000EFFF40001BFFF80
004FFFE0028EFFFFA0
008FFFB6BFFFFFFF40
00CFFFFFFFFFFFE600
009FFFFFFFFFF81000
002EFDFFFEB6100000
000260476200000000
ENDCHAR
STARTCHAR C
ENCODING 67
SWIDTH 611 0
DWIDTH 15 0
BBX 15 18 0 0
BITMAP
0000000000220000
0000000018EFA000
00000007DFFFFC00
000004DFFFFFFF20
0002CFFFFFFFFC00
003DFFFFFFFD9100
03EFFFFFF9300000
1DFFFFFD30000000
8FFFFE6000000000
EFFFE30000000000
FFFE300000000000
EFFA000000000000
BFFB000000000000
6FFFB85422110000
1EFFFFFFFFFF9000
04FFFFFFFFFFF500
002DFFFFFFFFF500
000037BDFFDD4000
ENDCHAR
STARTCHAR D
ENCODING 68
SWIDTH 588 0
DWIDTH 14 0
BBX 14 19 0 -1
BITMAP
01400000000000
05FD7200000000
06FFFFA5000000
03FFFFFFB10000
09FFFFFFFE4000
08FF66CFFFF600
05FF90029FFF50
03FFB00008FFE1
02FFC000007FF6
03FFC000007FFA
08FFC00006FFFB
0BFFA005CFFFF6
1FFF85BFFFFFA0
5FFFFFFFFFFA00
9FFFFFFFFD5000
8FFFFFFE810000
5FFFFD71000000
0CFB5000000000
00200000000000
ENDCHAR
STARTCHAR E
ENCODING 69
SWIDTH 626 0
DWIDTH 15 0
BBX 16 19 0 -1
BITMAP
0000000000002300
000000269BDFFFA1
00169DFFFFFFFFF9
02DFFFFFFFFFFFF4
03FFFFFFFFFEC820
01FFFFFEC8300000
00BFFFA000000000
005FFFEBBCD40000
00AFFFFFFFFE6000
03FFFFFFFFFFC000
09FFFFFFFFF81000
3FFFF86765100000
9FFFC00000000000
BFFF5001347BB000
AFFFFEFFFFFFFD00
7FFFFFFFFFFFFE20
3FFFFFFFFFFFE400
05DFFFFEEC961000
0001321000000000
ENDCHAR
STARTCHAR F
ENCODING 70
SWIDTH 575 0
DWIDTH 14 0
BBX 18 19 -1 -1
BITMAP
000000000014689810
000000037CFFFFFFD2
000038DFFFFFFFFFFE
004EFFFFFFFFFFFFEB
009FFFFFFFB8531000
005FFFFFB100000000
0008FFFF7000000000
0000BFFF1000000000
0011FFFC0013410000
1BFDFFFECEFFF80000
6FFFFFFFFFFFFE1000
4FFFFFFFFFFFF50000
0BFFFFFFCA75300000
01FFFD310000000000
05FFF7000000000000
07FFF1000000000000
04FFF0000000000000
009FB0000000000000
000200000000000000
ENDCHAR
STARTCHAR G
ENCODING 71
SWIDTH 789 0
DWIDTH 19 0
BBX 20 18 0 0
BITMAP
00000000000340000000
00000000008FF8100000
000000004DFFFFB00000
0000001AFFFFFFD00000
000003DFFFFFFF800000
00005EFFFFFF92000000
0005FFFFFFA200000000
006FFFFFE40005100000
03FFFFFC2002CFE60000
0CFFFFB10005FFFFD500
6FFFFB000002FFFFFF70
DFFFD10000009FFFFFF8
EFFF30000015AFFFFFFD
BFFC4437BDFFFFFFFFF5
8FFFFFFFFFFFFFFFFE50
3FFFFFFFFFFFFFFC7100
08FFFFFFFFFEA5100000
006CFFDC864000000000
ENDCHAR
STARTCHAR H
ENCODING 72
SWIDTH 695 0
DWIDTH 17 0
BBX 18 19 -1 -1
BITMAP
000000000000009100
00009600000007F800
0003FD1000000BFE10
0008FFA000000AFF90
000BFFF500002FFFF1
000CFFF600002FFFF2
000EFFF400003FFFF3
000FFFF200005FFFF3
004FFFE000008FFFE0
006FFFB0137CFFFFB0
00BFFFECFFFFFFFF80
01FFFFFFFFFFFFFF50
03FFFFFFFFFFFFFE00
09FFFFFFEA5EFFF700
0CFFFFE7101FFFF400
2FFFFF30002FFFF600
0CFFFB00000AFFE200
05FFD2000001DB3000
002400000000000000
ENDCHAR
STARTCHAR I
ENCODING 73
SWIDTH 515 0
DWIDTH 12 0
BBX 17 19 -1 -1
BITMAP
000000145567642000
0002CEFFFFFFFFF800
0004FFFFFFFFFFFF60
0002FFFFFFFFFFFC30
00008EBBFFF8320000
00000008FFF2000000
0000000BFFD0000000
0000001FFF90000000
0000005FFF50000000
000000BFFF10000000
000002FFFB00000000
000007FFF700000000
00000EFFF100000000
00006FFFA200000000
368AEFFFFFA0000000
CFFFFFFFFFFA000000
9FFFFFFFFFF5000000
4FFEB8785420000000
032000000000000000
ENDCHAR
STARTCHAR J
ENCODING 74
SWIDTH 668 0
DWIDTH 16 0
BBX 21 17 -1 0
BITMAP
0001369BBCDEFFFFFDA000
003EFFFFFFFFFFFFFFF900
006FFFFFFFFFFFFFFFFF20
003FFFFFFEEFFFECCCDA00
0007EB63005FFF90000000
00000000008FFF60000000
0000000000BFFF20000000
0000000000EFFD00000000
0000000004FFFA00000000
0000000009FFF600000000
000000000EFFF200000000
000000007FFFC000000000
18850004EFFF7000000000
5FFFEEEFFFFE1000000000
5FFFFFFFFFF60000000000
1DFFFFFFFF600000000000
02769CEC93000000000000
ENDCHAR
STARTCHAR K
ENCODING 75
SWIDTH 776 0
DWIDTH 19 0
BBX 19 19 0 -1
BITMAP
00000320000000000000
00003FFA100000040000
0000BFFFA00004CFB100
0004FFFFB0019FFFFC00
000AFFFF403DFFFFFD00
000EFFFB07FFFFFFD300
004FFFF5AFFFFFF91000
00AFFFFDFFFFFC300000
01FFFFFFFFFFA0000000
06FFFFFFFFF700000000
0BFFFFFFFFA000000000
0EFFFFFFFFF500000000
2FFFFFFFFFFFC7654500
8FFFFFE38FFFFFFFFF90
AFFFFE2007FFFFFFFFF0
6FFFF600003BFFFFFF80
2FFFA000000038BCC700
0AFC1000000000000000
00300000000000000000
ENDCHAR
STARTCHAR L
ENCODING 76
SWIDTH 632 0
DWIDTH 15 0
BBX 15 19 0 -1
BITMAP
0000540000000000
0000EFE700000000
0004FFFF20000000
0008FFFE10000000
000EFFFA00000000
004FFFF400000000
00AFFFD000000000
01EFFF8000000000
05FFFF2000000000
0BFFFC0000000000
1EFFF60000000000
5FFFF10000000000
9FFFC00000000000
BFFFB48BCCDB4000
BFFFFFFFFFFFFC30
7FFFFFFFFFFFFF70
1EFFFFFFFFFFFF90
06FFFFC754345400
0014310000000000
ENDCHAR
STARTCHAR M
ENCODING 77
SWIDTH 973 0
DWIDTH 23 0
BBX 24 19 0 -1
BITMAP
000000282000000000000000
000002EFB4000000002EC300
00000BFFFF40000000BFFD20
00005FFFFFD0000009FFFFB0
0000DFFFFFF10001BFFFFFF1
0007FFFFFFF1001CFFFFFFC0
000DFFFFFFF106DFFFFFFFA0
006FFFFFFFFDDFFFFFFFFF70
00CFFFFFFFFFFFFFFFFFFF70
04FFFFFFFFFFFFFFE6EFFF50
0AFFFF4EFFFFFFFB22FFFF10
2FFFFB04EFFFFC4006FFFF00
7FFFF7002797300009FFFD00
BFFFE200000000000BFFF900
DFFF8000000000000CFFF400
BFFE2000000000000BFFD000
7FFA00000000000007FF7000
2FF300000000000001940000
033000000000000000000000
ENDCHAR
STARTCHAR N
ENCODING 78
SWIDTH 684 0
DWIDTH 16 0
BBX 18 18 -1 0
BITMAP
000000110000004200
000000AE700000CE50
000002FFFA0002FFF7
000009FFFF5009FFFE
00001EFFFF600CFFFC
00008FFFFF300EFFF5
0001EFFFFE002FFFE0
0007FFFFF9005FFFB0
001EFFFFF9009FFF80
007FFFFFF901EFFF60
01EFFFFFF908FFFF50
07FFFFFFFA5FFFFF20
0DFFFFEFFFFFFFFC00
4FFFFF4DFFFFFFF700
1FFFFA04FFFFFFB000
0BFFF3008FFFFE3000
04FFE00007FFE40000
008E40000046200000
ENDCHAR
STARTCHAR O
ENCODING 79
SWIDTH 744 0
DWIDTH 18 0
BBX 17 19 0 -1
BITMAP
00000000006B400000
000000001CFFE30000
00000002DFFFFE1000
0000005EFFFFFE2000
000006FFFFFFFE0000
00008FFFFFFFFF4000
0007FFFFFECEFFC000
004FFFFF7006FFF500
01EFFFF40000DFFD00
0AFFFE4000004FFF50
2FFFF60000000DFF80
7FFFB00000000DFFD0
AFFF40000004CFFFF0
BFFF300137CFFFFFC0
AFFFFFFFFFFFFFFF50
3FFFFFFFFFFFFFE400
08FFFFFFFFFFD81000
006DFFFFEC94000000
000022330000000000
ENDCHAR
STARTCHAR P
ENCODING 80
SWIDTH 639 0
DWIDTH 15 0
BBX 16 19 0 -1
BITMAP
0000000378763000
000001AFFFFFFC20
00002DFFFFFFFFC0
0000AFFFFFFFFFF4
0002FFFFFFFFFFFA
0008FFFA4237EFFE
005EFFE00038EFFF
03FFFFB59DFFFFFE
0AFFFFFFFFFFFFFA
0DFFFFFFFFFFFFB1
1FFFFFFFFFFFC600
0AFFFFFFFC830000
06FFFC6300000000
08FFF80000000000
0AFFF70000000000
0DFFF50000000000
0EFFF20000000000
07FFA00000000000
0042000000000000
ENDCHAR
STARTCHAR Q
ENCODING 81
SWIDTH 744 0
DWIDTH 18 0
BBX 19 20 -1 -2
BITMAP
00000000006660000000
0000000006FFFD300000
0000000008FFFFE30000
000000004FFFFFFA0000
00000007FFFFFFFF4000
0000019FFFFFFFFFD000
00002CFFFFF807FFF600
0003EFFFFD4000BFFD00
003EFFFFC100003FFF30
01DFFFFA08A8204FFF30
08FFFF900DFFD1CFFF30
0EFFFB0005FFFEFFFF10
1FFFE100009FFFFFFA00
0DFF70027BFFFFFFD100
0DFFBADFFFFFFFFF2000
0AFFFFFFFFFFFFFF4000
03EFFFFFFFFE9FFF9000
002AFFFFD9510BFFE100
00001431000004FFB000
00000000000000361000
ENDCHAR
STARTCHAR R
ENCODING 82
SWIDTH 646 0
DWIDTH 16 0
BBX 16 19 0 -1
BITMAP
0000000066000000
0000001CFFB10000
000001CFFFFB1000
000009FFFFFF9000
00006FFFFFFFF300
009CFFFF7DFFF900
00EFFFF603FFFE00
02FFFF9005FFFF20
05FFFF79EFFFFE00
09FFFFFFFFFFF600
0DFFFFFFFFFD5000
0FFFFFFFFA500000
3FFFFFFB10000000
5FFFFFFFB2000000
8FFFFFFFFFC95200
8FFF5CFFFFFFFFF2
5FFE007EFFFFFFF7
1CE600017CFFFFF6
001000000037BCA1
ENDCHAR
STARTCHAR S
ENCODING 83
SWIDTH 576 0
DWIDTH 14 0
BBX 17 19 0 -1
BITMAP
000000000257763000
00000048DFFFFFF300
0003BEFFFFFFFFFC00
03CFFFFFFFFFFFFF50
3FFFFFFFFDBDCCCC20
9FFFFFF61000000000
AFFFFFFD7000000000
8FFFFFFFFD10000000
19EFFFFFFF70000000
0002468EFFF3000000
000000005FFB000000
000000005FFE000000
00000005EFFD000000
000005CFFFF7000000
049AEFFFFFC1000000
09FFFFFFFB10000000
09FFFFFE8000000000
05FFFD810000000000
004420000000000000
ENDCHAR
STARTCHAR T
ENCODING 84
SWIDTH 607 0
DWIDTH 15 0
BBX 19 19 0 -1
BITMAP
00000001300246787100
2344678BFEFFFFFFFC10
DFFFFFFFFFFFFFFFFF80
DFFFFFFFFFFFFFFFFF70
9FFFFFFFFFFCA8655200
1ACBA9CFFF9000000000
000000EFFF3000000000
000006FFFC0000000000
00000DFFF60000000000
00004FFFE10000000000
00009FFF800000000000
0001EFFE100000000000
0005FFF9000000000000
0007FFF3000000000000
0008FFE0000000000000
0006FFC0000000000000
0002FFF9000000000000
00008FFB000000000000
00000371000000000000
ENDCHAR
STARTCHAR U
ENCODING 85
SWIDTH 695 0
DWIDTH 17 0
BBX 17 18 1 0
BITMAP
000000000000031000
0000000000000DD200
0160000000002EF700
0CF4000000006FFB00
1FFF100000009FFF10
4FFF70000000CFFF40
6FFFC0000002FFFF10
9FFFB0000008FFFD00
BFFF7000002FFFF900
CFFF500001CFFFE200
CFFF40001CFFFF8000
BFFF6005DFFFFE1000
BFFFC8DFFFFFC20000
8FFFFFFFFFFE100000
1FFFFFFFFFF4000000
0BFFFFFFFE40000000
03FFFFFF9200000000
003ABC820000000000
ENDCHAR
STARTCHAR V
ENCODING 86
SWIDTH 583 0
DWIDTH 14 0
BBX 15 19 1 -1
BITMAP
0210000000006300
2ED000000009FF50
6FF80000007FFFA0
6FFF200005FFFF90
5FFF80002EFFFF40
3FFFB000CFFFF800
3FFFD007FFFFB000
3FFFE02EFFFD1000
3FFFF0BFFFE20000
1FFFF8FFFF600000
0DFFFFFFFB000000
0CFFFFFFF3000000
09FFFFFF70000000
06FFFFFD00000000
03FFFFF400000000
00DFFF8000000000
008FFF6000000000
001CFC0000000000
0000200000000000
ENDCHAR
STARTCHAR W
ENCODING 87
SWIDTH 994 0
DWIDTH 24 0
BBX 25 19 0 -1
BITMAP
00000000000000000000005000
00009C1000000000000004F900
0006FFC10000083000000CFF60
000DFFF600007FF500003FFFC0
005FFFF20002FFFE10009FFFF0
00BFFFD0000BFFFF2001EFFFA0
01FFFF80005FFFFE0006FFFF30
05FFFF3001EFFFFB000CFFFB00
08FFFD0008FFFFF8004FFFF500
0CFFF8003FFFFFF400BFFFD000
0EFFF401DFFFFFF205FFFF7000
3FFFF11BFFFFFFF33EFFFE1000
5FFFD2CFFFFFFFFBEFFFF80000
7FFFEEFFFFF9BFFFFFFFE10000
2FFFFFFFFF803FFFFFFF600000
09FFFFFFF7000AFFFFFA000000
01DFFFFD300002EFFFC1000000
0018CA500000005EFA10000000
00000000000000010000000000
ENDCHAR
STARTCHAR X
ENCODING 88
SWIDTH 623 0
DWIDTH 15 0
BBX 18 19 -1 -1
BITMAP
000100000000000000
000CD7000000005B30
000FFFB100002BFFC0
001FFFFB0005EFFFF5
001DFFFF819FFFFFE1
0007FFFFFDFFFFFC40
00008FFFFFFFFF7000
00000CFFFFFFD30000
000007FFFFFB100000
00006FFFFFF2000000
0005FFFFFFFB000000
004FFFFFFFFF600000
02EFFFFABFFFE20000
0BFFFF901EFFFC0000
2FFFF90005FFFF2000
4FFFB00000CFFF6000
4FFF1000006FFF2000
0DFC00000009F80000
03A200000000100000
ENDCHAR
STARTCHAR Y
ENCODING 89
SWIDTH 493 0
DWIDTH 12 0
BBX 14 19 1 -1
BITMAP
16100000006900
9FE600001CFFA1
9FFE2000BFFFF6
6FFF600AFFFFE2
5FFF804FFFFE30
3FFFC2EFFFE400
0FFFECFFFF6000
0CFFFFFFF80000
06FFFFFFD10000
00DFFFFF400000
005FFFFB000000
00AFFFF2000000
03FFFF70000000
0BFFFD10000000
4FFFF600000000
BFFFC000000000
EFFF4000000000
9FFB0000000000
07B20000000000
ENDCHAR
STARTCHAR Z
ENCODING 90
SWIDTH 664 0
DWIDTH 16 0
BBX 18 19 -1 -1
BITMAP
000000133101101100
00006FFFFFFFFFFF80
00007FFFFFFFFFFFF4
00004FFFFFFFFFFFF9
00000AFEDCBFFFFFF5
00000010009FFFFF90
000000001BFFFFE500
00000003DFFFFE3000
0000019FFFFFE30000
00004EFFFFFD200000
0008FFFFFF80000000
02CFFFFFD400000000
0AFFFFF91000042000
1FFFFF600169DFE200
3FFFFE67BFFFFFFE00
3FFFFFFFFFFFFFF800
0BFFFFFFFFFFFA3000
03EFFFFFFCB6100000
0038EEB73000000000
ENDCHAR
STARTCHAR bracketleft
ENCODING 91
SWIDTH 387 0
DWIDTH 9 0
BBX 18 26 -1 -4
BITMAP
0000001257889A8730
000004FFFFFFFFFFF5
000003FFFFFFFFFFFE
000003FFFFFFEEDB94
000006FFF310000000
00000AFFD000000000
00000DFF9000000000
00002FFF6000000000
00006FFF2000000000
0000AFFD0000000000
0000EFFA0000000000
0003FFF60000000000
0007FFF20000000000
000BFFE00000000000
001FFFA00000000000
005FFF700000000000
009FFF300000000000
00DFFD000000000000
03FFF8000000000000
07FFF4000000000000
0CFFE0000000000000
1FFFA2334300000000
6FFFFFFFFF90000000
AFFFFFFFFFF5000000
6FFFFFFFFFA0000000
1DCA64330000000000
ENDCHAR
STARTCHAR backslash
ENCODING 92
SWIDTH 352 0
DWIDTH 8 0
BBX 6 19 1 -1
BITMAP
491000
8FC100
7FFA00
5FFC00
2FFE00
0FFF10
0BFF30
08FF50
05FF70
04FFB0
01FFE0
00CFF2
00AFF5
008FF6
007FF7
007FFA
006FFE
002FFB
000473
ENDCHAR
STARTCHAR bracketright
ENCODING 93
SWIDTH 403 0
DWIDTH 10 0
BBX 17 26 -7 -4
BITMAP
0000002469AABB9500
000000EFFFFFFFFF70
000000EFFFFFFFFFD0
000000AFFFDDDFFFB0
0000001730001FFF80
0000000000004FFF40
0000000000007FFF10
000000000000BFFC00
000000000001FFF800
000000000005FFF500
000000000009FFF100
00000000000CFFC000
00000000001FFF8000
00000000004FFF4000
00000000009FFF0000
0000000000EFFB0000
0000000003FFF80000
0000000008FFF40000
000000000CFFE00000
000000002FFFA00000
000000006FFF500000
00000233CFFF100000
49BCEFFFFFFB000000
AFFFFFFFFFF6000000
6FFFFFFFFFA0000000
1DCA64330000000000
ENDCHAR
STARTCHAR asciicircum
ENCODING 94
SWIDTH 518 0
DWIDTH 12 0
BBX 11 14 0 4
BITMAP
0000001AA100
0000007FF800
000000BFFD00
000008FFFF20
00002EFFFF50
0000BFFFFF70
0004FFFDFF90
002EFFA7FFC0
00CFFE15FFC0
0AFFF604FFC0
7FFFB001FFD0
DFFE1000CFE0
CFE300002EE0
4B4000000550
ENDCHAR
STARTCHAR underscore
ENCODING 95
SWIDTH 708 0
DWIDTH 17 0
BBX 20 4 -3 -1
BITMAP
07899CDDDDDDDDCB9610
4FFFFFFFFFFFFFFFFFD6
1DFFFFFFFFFFFFFFFFFA
02ACA876555555543200
ENDCHAR
STARTCHAR grave
ENCODING 96
SWIDTH 754 0
DWIDTH 18 0
BBX 7 8 7 10
BITMAP
0B600000
9FF90000
EFFFA000
8FFFF900
04EFFF80
003DFFE0
0001AFC0
00000320
ENDCHAR
STARTCHAR a
ENCODING 97
SWIDTH 581 0
DWIDTH 14 0
BBX 15 16 -1 -1
BITMAP
0000000020000000
00000002EEA10000
0000002CFFF50000
00001CEFFFF70000
00008FFFFFFA0000
0001EFFFEFFD0000
0008FFFC6FFF1000
000EFFE22FFF6100
006FFF713EFFFE60
00DFFFFFFFFFFFA0
06FFFDFFFFFFF900
0CFFC4FFDAEFF500
3FFF401102EFF700
5FFF00002EFFF300
1DF8000007FF6000
0130000000410000
ENDCHAR
STARTCHAR b
ENCODING 98
SWIDTH 573 0
DWIDTH 14 0
BBX 14 16 -1 -1
BITMAP
00000256774000
016AEFFFFFFB10
3DFFFFFFFFFFD1
8FFFFFC86BFFF5
1EFEFC107FFFF3
0294EFBCFFFF90
0003FFFFFFFA00
0007FFFFFFF400
000BFFFFFFFF60
000EFFA4003FF5
005FFF2000AFFD
00BFFC028EFFFE
00EFFCBFFFFFF6
01FFFFFFFFFD50
00AFFFFFEB5000
00072686000000
ENDCHAR
STARTCHAR c
ENCODING 99
SWIDTH 513 0
DWIDTH 12 0
BBX 12 16 0 -1
BITMAP
000000001300
00000006EFB0
000005DFFFFB
0003BFFFFFFA
006FFFFFFFB1
06FFFFFC6100
3FFFFE800000
CFFFC2000000
FFFB10000000
EFF200000000
CFF100000000
7FFEA7554410
1DFFFFFFFFB0
03CFFFFFFFF3
0016AEFFFF70
000000121000
ENDCHAR
STARTCHAR d
ENCODING 100
SWIDTH 497 0
DWIDTH 12 0
BBX 12 16 0 -1
BITMAP
022000000000
09FB50000000
08FFFE810000
09FFFFFD3000
0BFC8EFFF500
09FD005CFF40
07FF0001CFD1
07FF10001FF5
08FF10007FF8
0DFF004BFFF5
2FFD4AFFFFA0
6FFFFFFFFA00
9FFFFFFD4000
7FFFFD610000
2FFB40000000
022000000000
ENDCHAR
STARTCHAR e
ENCODING 101
SWIDTH 521 0
DWIDTH 13 0
BBX 14 16 0 -1
BITMAP
00000000013200
0000158BEFFF80
017CFFFFFFFFF1
07FFFFFFFFFC40
05FFFFFE842000
02FFFA10000000
00BFFECDE80000
03FFFFFFFF9000
09FFFFFFFE5000
3EFFC999710000
9FFF2000000000
BFFB23558CB100
9FFFFFFFFFFC00
6FFFFFFFFFF700
0BFFFFFFDA4000
00244311000000
ENDCHAR
STARTCHAR f
ENCODING 102
SWIDTH 455 0
DWIDTH 11 0
BBX 16 16 -1 -1
BITMAP
0000000003588400
0000026AEFFFFF70
0027CFFFFFFFFFF1
00DFFFFFFEB97740
00CFFFFA30000000
002DFFF200000000
0005FFC000000000
035BFFB468910000
4FFFFFFFFFFA0000
5FFFFFFFFFF60000
1DFFFFEB96400000
05FFD20000000000
08FF800000000000
09FF400000000000
02FF200000000000
0023000000000000
ENDCHAR
STARTCHAR g
ENCODING 103
SWIDTH 652 0
DWIDTH 16 0
BBX 17 16 0 -1
BITMAP
000000000330000000
000000007FF8000000
0000004DFFFF600000
000009FFFFFF600000
0001BFFFFFB3000000
001CFFFFC400000000
01DFFFF80027100000
0AFFFF5004EFE60000
4FFFF40002FFFFD200
CFFF500000BFFFFE30
EFF8000014AFFFFF90
BFF765ADFFFFFFFE20
7FFFFFFFFFFFFFA200
1EFFFFFFFFEB620000
03CFFFDB9500000000
000221000000000000
ENDCHAR
STARTCHAR h
ENCODING 104
SWIDTH 582 0
DWIDTH 14 0
BBX 15 16 -1 -1
BITMAP
0000000000016000
0005A0000009F200
000CF500000CF900
001FFE10001DFF40
003FFF50002FFF60
004FFF30003FFF70
006FFF10005FFF70
00AFFD0002AFFF30
00CFFC69DFFFFF00
03FFFFFFFFFFFD00
06FFFFFFFFFFF600
0BFFFFFB5BFFE100
1EFFFB300CFFE000
1EFFF2000AFFD000
09FF700002ED4000
0053000000100000
ENDCHAR
STARTCHAR i
ENCODING 105
SWIDTH 320 0
DWIDTH 8 0
BBX 6 16 1 -1
BITMAP
000310
006F70
00DFD1
03FFF2
07FFF5
09FFF2
0DFFB0
2FFF70
6FFF30
7FFF00
8FFD00
9FFD00
6FFE00
2FFF00
0BFC00
024100
ENDCHAR
STARTCHAR j
ENCODING 106
SWIDTH 534 0
DWIDTH 13 0
BBX 17 16 -1 -1
BITMAP
000000000011110000
00158BCCEFFFFFEC10
00AFFFFFFFFFFFFFA0
00AFFFFFFFFFFFFFC0
004EE9644FFF512210
000100002FFF200000
000000006FFD000000
000000009FF9000000
00000000EFF5000000
00000004FFF1000000
0000000BFFC0000000
2A94229FFF60000000
6FFFFFFFFE10000000
3FFFFFFFE300000000
06ABFFEB3000000000
000001000000000000
ENDCHAR
STARTCHAR k
ENCODING 107
SWIDTH 645 0
DWIDTH 16 0
BBX 16 16 0 -1
BITMAP
0000230000000000
0001EFA000004400
0008FFF5002BFF60
001FFFF206EFFFF1
005FFFA19FFFFF80
00AFFF5DFFFFD500
01FFFFEFFFF91000
07FFFFFFFE500000
0CFFFFFFE3000000
1FFFFFFFF4000000
4FFFFFFFFFA65450
8FFFFB1BFFFFFFFA
AFFFD1009FFFFFFC
5FFF4000039EFFE3
1EF7000000002210
0240000000000000
ENDCHAR
STARTCHAR l
ENCODING 108
SWIDTH 533 0
DWIDTH 13 0
BBX 13 16 0 -1
BITMAP
00025000000000
0009FF60000000
000EFFD0000000
004FFF80000000
009FFF30000000
00EFFC00000000
05FFF700000000
0AFFF100000000
0FFFB000000000
5FFF5000000000
9FFF1000000000
BFFE69CDDD6100
AFFFFFFFFFFE10
5FFFFFFFFFFF30
0CFFFEA8789710
00453000000000
ENDCHAR
STARTCHAR m
ENCODING 109
SWIDTH 814 0
DWIDTH 20 0
BBX 20 16 0 -1
BITMAP
00000370000000000000
00002EFA20000004FA00
0000BFFFC000001DFF90
0005FFFFF30002DFFFF3
000DFFFFF3003EFFFFF2
006FFFFFF407EFFFFFE0
00DFFFFFFEEFFFFFFFC0
04FFFFFFFFFFFFEEFFB0
0BFFFBFFFFFFFB2EFF80
2FFFE0AFFFFD503FFF60
8FFF90069840006FFF40
CFFF30000000008FFF10
CFFB00000000009FFA00
AFF300000000007FF400
5FC000000000001C7000
05200000000000000000
ENDCHAR
STARTCHAR n
ENCODING 110
SWIDTH 564 0
DWIDTH 14 0
BBX 16 16 -1 -1
BITMAP
0000021000004000
00000AE60001FB20
00002FFF6007FFC0
00009FFFC00CFFF1
0002FFFFA00EFFA0
0008FFFF602FFF40
001EFFFF205FFF10
008FFFFF20AFFD00
01EFFFFF22FFFB00
07FFFFFF3BFFF900
1EFFFEFFEFFFF400
4FFFF4DFFFFFD000
2FFFA04FFFFF4000
0AFF6006FFF80000
02EC10005A500000
0010000000000000
ENDCHAR
STARTCHAR o
ENCODING 111
SWIDTH 628 0
DWIDTH 15 0
BBX 15 16 0 -1
BITMAP
000000002A300000
00000008EFE30000
0000009FFFFD0000
00001CFFFFFA0000
0002CFFFFFFD0000
002DFFFEDDFF6000
00CFFFC203FFD000
08FFFC1000AFF600
1FFFC000002FFB00
6FFF3000000EFF10
AFF9000002BFFF30
BFFA3246AFFFFF10
9FFFFFFFFFFFF600
2EFFFFFFFFFD4000
03CFFFFFD9300000
0003454100000000
ENDCHAR
STARTCHAR p
ENCODING 112
SWIDTH 524 0
DWIDTH 13 0
BBX 14 16 0 -1
BITMAP
00000047762000
00004DFFFFF900
0003EFFFFFFF60
000BFFFFFFFFD0
002FFFA77AFFF2
01AFFB0027EFF4
0AFFFA8DFFFFF3
1FFFFFFFFFFFC0
4FFFFFFFFFF910
2FFFFFFFC72000
0CFFC741000000
0DFF8000000000
2FFF7000000000
4FFF4000000000
1EFD0000000000
03520000000000
ENDCHAR
STARTCHAR q
ENCODING 113
SWIDTH 625 0
DWIDTH 15 0
BBX 16 17 -1 -2
BITMAP
0000000036500000
00000000DFFD2000
00000003EFFFE100
0000003DFFFFF700
000005FFFFFFFE20
00008FFFFB29FFA0
001BFFFF7000DFF2
00BFFFE420007FF5
06FFFE24FF90CFF5
0DFFE301DFFCFFF4
1FFF60003FFFFFD0
0EFD025AEFFFFE30
0DFFDFFFFFFFF900
09FFFFFFFFEFFD00
009FFFFEA50DFF30
000154200005FF20
0000000000004300
ENDCHAR
STARTCHAR r
ENCODING 114
SWIDTH 541 0
DWIDTH 13 0
BBX 13 16 0 -1
BITMAP
00000027200000
000003EFE30000
00002EFFFE4000
0001CFFFFFD000
009BFFEBFFF500
03FFFF40CFFA00
07FFF705CFFC00
0AFFFBEFFFF800
0EFFFFFFFFA100
2FFFFFFFA40000
4FFFFF91000000
7FFFFFF9200000
AFFDFFFFFD9730
8FF73DFFFFFFD0
3FE1006CFFFFE0
0210000038BC70
ENDCHAR
STARTCHAR s
ENCODING 115
SWIDTH 463 0
DWIDTH 11 0
BBX 14 16 0 -1
BITMAP
00000001367510
000016BFFFFFC0
005AFFFFFFFFF6
1CFFFFFFFFFFFA
8FFFFE84122230
AFFFFFA3000000
8FFFFFFF600000
06ACEFFFD10000
0000017DF90000
00000008FF0000
0000007FFE0000
00016DFFF90000
09DFFFFFC10000
0CFFFFFA100000
0AFFFB40000000
01642000000000
ENDCHAR
STARTCHAR t
ENCODING 116
SWIDTH 479 0
DWIDTH 12 0
BBX 16 16 0 -1
BITMAP
0000002102467720
46689AEFFFFFFFD2
EFFFFFFFFFFFFFF8
BFFFFFFFFFFDCB92
4EEDCEFFE2000000
00000EFF80000000
00006FFF20000000
0000CFFB00000000
0003FFF400000000
0009FFC000000000
000DFF6000000000
001FFE0000000000
002FFB0000000000
000DFD2000000000
0007FF8000000000
0000471000000000
ENDCHAR
STARTCHAR u
ENCODING 117
SWIDTH 584 0
DWIDTH 14 0
BBX 14 15 1 0
BITMAP
00000000000300
00000000000F90
07500000005FE0
2FE30000008FF5
5FFA000000BFF8
7FFF100001FFF7
AFFE000007FFF4
BFFB00002EFFD0
CFF90001DFFF60
CFFA004DFFFC00
BFFE7CFFFFC200
7FFFFFFFFD1000
2FFFFFFFE40000
0BFFFFFC300000
01ADEB50000000
ENDCHAR
STARTCHAR v
ENCODING 118
SWIDTH 485 0
DWIDTH 12 0
BBX 13 16 1 -1
BITMAP
03000000005300
3F80000008FF20
6FF400006FFF50
5FFB0003FFFF20
4FFF001DFFF900
3FFF209FFFB000
4FFF33FFFD1000
3FFF5CFFF30000
0FFFDFFF600000
0EFFFFFD000000
0BFFFFF4000000
08FFFF90000000
05FFFD10000000
00EFF700000000
007FE200000000
00032000000000
ENDCHAR
STARTCHAR w
ENCODING 119
SWIDTH 825 0
DWIDTH 20 0
BBX 21 16 0 -1
BITMAP
0000000000000000003100
0006E3000000000000DD10
002EFE20001C500005FF90
008FFF2000BFF3000BFFD0
00EFFD0006FFF9002FFFC0
04FFF8001EFFF6008FFF40
08FFF3009FFFF300EFFD00
0CFFD003FFFFE006FFF600
0FFF801CFFFFC01DFFE100
3FFF50AFFFFFB09FFF9000
6FFF3BFFFFFFEBFFFF2000
6FFFEFFFFAAFFFFFF80000
1EFFFFFF902FFFFFD10000
08FFFFF60008FFFE300000
007ED9200001CFE4000000
0000000000000310000000
ENDCHAR
STARTCHAR x
ENCODING 120
SWIDTH 506 0
DWIDTH 12 0
BBX 15 16 -1 -1
BITMAP
0001000000000000
004FB2000002AA00
006FFE20006EFF50
007FFFD11AFFFF80
001EFFFBDFFFFB10
0003FFFFFFFE5000
00007FFFFFB10000
00007FFFF9000000
0007FFFFFA000000
006FFFFFFF400000
04FFFF9EFFE20000
0DFFF705FFFA0000
3FFF8000AFFE1000
5FFB00003FFF1000
2FF500000AF80000
0580000000300000
ENDCHAR
STARTCHAR y
ENCODING 121
SWIDTH 400 0
DWIDTH 10 0
BBX 12 16 1 -1
BITMAP
240000003800
AFC10006FFB1
9FF8006FFFF2
7FFB03FFFF80
5FFE1CFFF800
2FFFBFFFA000
0EFFFFFD0000
08FFFFF30000
01DFFFA00000
01DFFE200000
08FFF7000000
1EFFC0000000
8FFF50000000
EFFB00000000
CFF400000000
2A8000000000
ENDCHAR
STARTCHAR z
ENCODING 122
SWIDTH 547 0
DWIDTH 13 0
BBX 15 16 -1 -1
BITMAP
0000023311212000
0001FFFFFFFFFE20
0001FFFFFFFFFFB0
0000AFFFFFFFFFB0
000015423DFFFE30
00000003EFFFC200
0000007FFFFB1000
00003DFFFFA00000
0006FFFFF8000000
02BFFFFD30000000
0AFFFF9100041000
1FFFF5016AEFA200
3FFFFBCFFFFFF600
2EFFFFFFFFFE8000
07FFFFFFEB610000
006CEB8300000000
ENDCHAR
STARTCHAR braceleft
ENCODING 123
SWIDTH 448 0
DWIDTH 11 0
BBX 20 26 0 -4
BITMAP
00000000247889A97400
0000002FFFFFFFFFFF70
0000001FFFFFFFFFFFF2
0000001FFFFFFEEDB950
0000004FFF5100000000
0000007FFF1000000000
000000BFFC0000000000
000000EFF90000000000
000004FFF50000000000
00029FFFF10000000000
079FFFFFC00000000000
6FFFFFE7100000000000
7FFFFA10000000000000
2EFFFF81000000000000
03EFFFFC000000000000
001BFFFA000000000000
0006FFF5000000000000
000BFFF1000000000000
001FFFB0000000000000
005FFF70000000000000
00AFFF20000000000000
00EFFC13344000000000
04FFFFFFFFFA10000000
07FFFFFFFFFF70000000
04FFFFFFFFFC20000000
00BDA742300000000000
ENDCHAR
STARTCHAR bar
ENCODING 124
SWIDTH 332 0
DWIDTH 8 0
BBX 8 19 0 -1
BITMAP
00000180
000009F5
00001EFB
00005FFE
0000AFF9
0001FFF3
0004FFC0
0009FF70
000EFF10
005FFB00
009FF700
00EFF200
05FFD000
0BFF8000
3FFE2000
AFFB0000
EFF50000
BFD20000
05100000
ENDCHAR
STARTCHAR braceright
ENCODING 125
SWIDTH 481 0
DWIDTH 12 0
BBX 18 26 -7 -4
BITMAP
0000002479ABCB9400
000004FFFFFFFFFF40
000003FFFFFFFFFFA0
000000DFFEDDEFFF70
0000003630004FFF40
0000000000007FFF10
000000000000BFFC00
000000000001FFF900
000000000005FFF500
000000000009FFF100
00000000000EFFE200
00000000004FFFFE60
000000000008FFFFF6
0000000000002EFFFE
000000000005DFFFFF
0000000002CFFFFFB7
0000000007FFFFA300
000000000BFFF40000
000000001FFFB00000
000000005FFF600000
00000000AFFF200000
00000233EFFC000000
69BDFFFFFFF7000000
DFFFFFFFFFF2000000
AFFFFFFFFF70000000
3EC963320000000000
ENDCHAR
STARTCHAR asciitilde
ENCODING 126
SWIDTH 581 0
DWIDTH 14 0
BBX 14 5 0 5
BITMAP
00168740002560
03EFFFFA03EFE1
1DFFFFFFCEFF70
9FFA2CFFFFFB00
BC91019DED7000
ENDCHAR
STARTCHAR uni00A0
ENCODING 160
SWIDTH 370 0
DWIDTH 9 0
BBX 1 1 0 0
BITMAP
00
ENDCHAR
STARTCHAR exclamdown
ENCODING 161
SWIDTH 260 0
DWIDTH 6 0
BBX 8 19 -1 -1
BITMAP
00008B20
0009FFB0
000DFFF2
000DFFA0
00003710
00000000
00198100
008FF900
00DFF800
01FFF600
04FFF400
07FFF200
09FFB000
0CFF8000
1FFF7000
1FFF3000
2FFE0000
0BF80000
03700000
ENDCHAR
STARTCHAR cent
ENCODING 162
SWIDTH 488 0
DWIDTH 12 0
BBX 12 19 0 -1
BITMAP
000000061000
0000004F8000
000000AFE000
000001EFF910
000006FFFFD1
0003BFFFFFF2
007FFFFFFC40
07FFFFE61000
4FFFF8100000
AFFE30000000
AFF300000000
8FF200000000
3FFEB9877500
09FFFFFFFF70
006FFFFFFF70
006FFF776300
00AFFA000000
008FF5000000
000540000000
ENDCHAR
STARTCHAR sterling
ENCODING 163
SWIDTH 586 0
DWIDTH 14 0
BBX 15 15 -1 1
BITMAP
0000000047852200
0000002CFFFFFF60
000001DFFFFFFFD0
000008FFFC89DFB0
00000EFFA0000210
00016FFF95400000
06EFFFFFFFFB1000
06FFFFFFFFFF6000
02FFFFFAA9740000
0027FFD000000000
0008FFB0027B6000
1BDEFFFEFFFFF200
2FFFFFFFFFFFF400
06FFFFFFFFDA6000
0023443210000000
ENDCHAR
STARTCHAR currency
ENCODING 164
SWIDTH 509 0
DWIDTH 12 0
BBX 12 13 0 0
BITMAP
00C801A90392
02FFCDFFCFFA
02FFFFFFFFFB
00AFFFFFFF91
02EFFFEFF900
0BFFE34FFE00
1FFF527FFF30
3FFFFFFFFF30
3FFFFFFFFA00
8FFFFFFFF900
BFD5542EFC00
8F700006F500
060000001000
ENDCHAR
STARTCHAR yen
ENCODING 165
SWIDTH 563 0
DWIDTH 14 0
BBX 14 17 0 -1
BITMAP
00000000000110
001EA200007EB1
002FFD0007FFFA
000EFF206FFFF6
000EFF62EFFF70
000BFF9BFFF800
0008FFFFFFA000
0005FFFFFF3000
6CEFFFFFFFFA00
8FFFFFFFFFFFA0
4FFFFFFFDDB830
0567FFF9000000
000CFFF1000000
004FFF80000000
006FFE10000000
001CF600000000
00002000000000
ENDCHAR
STARTCHAR brokenbar
ENCODING 166
SWIDTH 301 0
DWIDTH 7 0
BBX 9 19 -1 -1
BITMAP
0000004500
000000EE10
000005FF60
00000AFF80
00001EFF40
00006FFD00
0000CFF700
0000DFF200
00006D7000
0000000000
0000000000
003FB20000
00BFF70000
02FFF30000
09FFC00000
1FFF700000
5FFF000000
3EFA000000
0150000000
ENDCHAR
STARTCHAR section
ENCODING 167
SWIDTH 630 0
DWIDTH 15 0
BBX 15 22 0 -3
BITMAP
000000258BCDD600
00049DFFFFFFFF50
008FFFFFFFFFFFB0
00CFFFFFFECCFE40
00EFFFE520001100
00CFFFFD50000000
004EFFFFFE810000
002BFFFFFFFD3000
02EFFFFFFFFFE200
0BFFFFEDADFFFD00
1FFFD61001CFFF20
0CFFF9478EFFFE10
04FFFFFFFFFFF700
006FFFFFFFFF7000
0003CFFFFFFD2000
000004AFFFFFC000
00000003DFFFF100
07B768BEFFFFF000
7FFFFFFFFFFFD000
7FFFFFFFFFEB3000
0AFFFFFC84100000
0034420000000000
ENDCHAR
STARTCHAR dieresis
ENCODING 168
SWIDTH 754 0
DWIDTH 18 0
BBX 11 5 5 13
BITMAP
038100056400
5FFC102FFF50
9FFF603FFF90
7FFA102BFC20
044000003100
ENDCHAR
STARTCHAR copyright
ENCODING 169
SWIDTH 614 0
DWIDTH 15 0
BBX 15 16 0 2
BITMAP
0000000154000000
000008CEFFC30000
0002CFFFC7AF6000
001CFF92011CF600
00AFF4017ED4FD00
04FF808EFFE2DF40
0BFD1BFFC720AF80
2FF68FD600008F90
6FE0CD1000009F90
7FD0CC200000DF70
6FF18FFDB506FF20
2FF409EFF95FF800
09FB000335EFA000
00BFB647DFF90000
0006EFFFFD600000
0000146740000000
ENDCHAR
STARTCHAR ordfeminine
ENCODING 170
SWIDTH 454 0
DWIDTH 11 0
BBX 11 11 0 5
BITMAP
000002410000
00001DFE3000
0009EFFF6000
005FFFFF9000
00DFFFFFC000
05FFF9FFF920
0DFFFDFFFFB0
5FFFFFFFFE40
CFFCEEFFFC00
EFF503FFF900
6EA1009FB100
ENDCHAR
STARTCHAR guillemotleft
ENCODING 171
SWIDTH 566 0
DWIDTH 14 0
BBX 14 12 -1 -1
BITMAP
00000012000021
000003ED0004EB
00003EFF004EFD
0007EFF808FFF6
05CFFF95DFFF70
2FFFE64FFFE500
2FFF304FFE2000
0CFFD31DFFB200
02DFFE23EFFD10
001BFF902CFF70
00007EE0018FC0
00000250000250
ENDCHAR
STARTCHAR logicalnot
ENCODING 172
SWIDTH 698 0
DWIDTH 17 0
BBX 15 10 0 -1
BITMAP
0000001122100000
6ABDFFFFFFFFD800
CFFFFFFFFFFFFFC0
8FFFFFFFFFFFFFE0
07975322111AFFA0
00000000003FFF40
00000000009FFD00
0000000000CFF700
00000000006EC200
0000000000010000
ENDCHAR
STARTCHAR sfthyphen
ENCODING 173
SWIDTH 608 0
DWIDTH 15 0
BBX 13 5 0 4
BITMAP
00000112210000
2ABDFFFFFFEA00
5FFFFFFFFFFFC0
2FFFFFFFFFEC70
05964221100000
ENDCHAR
STARTCHAR registered
ENCODING 174
SWIDTH 624 0
DWIDTH 15 0
BBX 15 16 0 2
BITMAP
0000000045100000
000006BDFFD50000
0000AFFFD88F9000
000AFFB32608FA00
007FF803EFA1EF20
01FFB03DFFF4AF70
08FF24FF59F86FB0
0EFA0AFC9EF64FC0
2FF30EFFFE705FC0
4FF13FFF70009FB0
3FF48FEFFA65EF50
0DF87F38FFFFFC00
05FE23001AFFD100
008FC746BFFC1000
0005DFFFFE710000
0000036651000000
ENDCHAR
STARTCHAR macron
ENCODING 175
SWIDTH 754 0
DWIDTH 18 0
BBX 9 4 6 14
BITMAP
2679ABA900
AFFFFFFF80
BFFFFFFF60
7B96665400
ENDCHAR
STARTCHAR degree
ENCODING 176
SWIDTH 284 0
DWIDTH 7 0
BBX 8 8 2 12
BITMAP
00017200
001BFC00
02DFFD00
1DFFFF60
9FF4CFD0
DFFCFFF1
DFFFFFA0
4DEDA400
ENDCHAR
STARTCHAR plusminus
ENCODING 177
SWIDTH 559 0
DWIDTH 13 0
BBX 15 18 -1 -1
BITMAP
0000000046000000
00000006FF200000
0000000CFF900000
0000001FFF800000
0000006FFF800000
00589CEFFFEDA300
00DFFFFFFFFFFE40
00BFFFFFFFFFFC30
002BAAFFFA321000
000006FFF6000000
000009FFF2000000
000009FFC0000000
0000028A20000000
0002344553200000
6DEFFFFFFFFB1000
8FFFFFFFFFFFA000
3FFFFEEDDCB82000
0463100000000000
ENDCHAR
STARTCHAR twosuperior
ENCODING 178
SWIDTH 386 0
DWIDTH 9 0
BBX 10 10 1 8
BITMAP
0001100000
0BEFFE8000
3FFFFFFA00
1CFDFFFF10
002CFFF900
03EFFF8000
1EFFFB9CB0
4FFFFFFFF5
2FFFFFFEA2
0489742000
ENDCHAR
STARTCHAR threesuperior
ENCODING 179
SWIDTH 366 0
DWIDTH 9 0
BBX 9 10 1 8
BITMAP
0000011000
07BDFFF500
3FFFFFFE10
3FFFFFFD10
04BFFFF200
006FFFFB00
0016CFFF50
00DFFFFF60
00FFFFFA10
0059872000
ENDCHAR
STARTCHAR acute
ENCODING 180
SWIDTH 754 0
DWIDTH 18 0
BBX 7 8 7 10
BITMAP
00006B00
0009FF90
00AFFFE0
09FFFF80
8FFFE400
EFFD3000
CFA10000
23000000
ENDCHAR
STARTCHAR mu
ENCODING 181
SWIDTH 569 0
DWIDTH 14 0
BBX 15 16 -1 -3
BITMAP
000000000000B400
000320000002FC00
000FC1000006FF20
003FF7000009FF60
005FFC00000EFF30
008FFA00005FFF10
00CFF70001EFF900
01FFF6002DFFF200
04FFF827EFFF7000
05FFFFFFFFF60000
0BFFFFFFFF900000
0EFFFFFFF8000000
1FFFCEE920000000
3FFD000000000000
3FF8000000000000
0571000000000000
ENDCHAR
STARTCHAR paragraph
ENCODING 182
SWIDTH 729 0
DWIDTH 18 0
BBX 18 20 1 -1
BITMAP
000000000000010000
000000002579BEEC30
000038DFFFFFFFFFF4
006DFFFFFFFFFFFFFF
1BFFFFFFFFFFFFFFB5
6FFFFFFEFFF2AFF900
8FFFF949FFB0DFF500
7FFF800DFF82FFF200
2FFFB12FFF56FFE000
09FFFFDFFF38FFC000
008FFFFFFFACFF8000
0004BFFFFFFFFF8000
000003FFFFFFFFF500
000005FFF6CFFE8200
000007FFE1DFF80000
000007FFB0FFF50000
00000AFF70EFF90000
00001FFF40BFFF1000
00002FFD105FFF0000
000002630006850000
ENDCHAR
STARTCHAR periodcentered
ENCODING 183
SWIDTH 226 0
DWIDTH 5 0
BBX 5 5 1 6
BITMAP
38B100
BFFB00
EFFE10
9FE300
010000
ENDCHAR
STARTCHAR cedilla
ENCODING 184
SWIDTH 754 0
DWIDTH 18 0
BBX 9 10 6 -8
BITMAP
0001400000
002DFA0000
00DFE20000
02FFFA3000
01CFFFF500
00047DFF30
01124BFF90
8FFFFFFF40
2EFFFFC500
0144410000
ENDCHAR
STARTCHAR onesuperior
ENCODING 185
SWIDTH 206 0
DWIDTH 5 0
BBX 5 10 1 8
BITMAP
001000
08F500
0BFF20
08FF50
07FF60
0BFF40
2FFE10
6FFA00
6FF500
198000
ENDCHAR
STARTCHAR ordmasculine
ENCODING 186
SWIDTH 445 0
DWIDTH 11 0
BBX 11 12 0 4
BITMAP
000001960000
00003EFF7000
0005EFFFD000
006FFFFFD000
04FFFFFFF600
1DFFF8BFFD00
6FFF703FFF30
AFFE69EFFF60
BFFFFFFFFF30
6FFFFFFFF600
08FFFFD82000
001231000000
ENDCHAR
STARTCHAR guillemotright
ENCODING 187
SWIDTH 595 0
DWIDTH 14 0
BBX 14 12 -1 -1
BITMAP
01200000200000
06F81004F91000
02FFE301EFE400
00AFFF509FFF60
001BFFF309FFF4
0000AFFA008FFB
0008FFFB07FFFC
01BFFFB4AFFFB5
1CFFE50BFFE600
6FFC105FFC2000
6FB1004FC10000
06100006100000
ENDCHAR
STARTCHAR onequarter
ENCODING 188
SWIDTH 705 0
DWIDTH 17 0
BBX 16 19 0 -1
BITMAP
0011000000028000
00BE3000001DF200
00EFD00000CFF300
00BFF20009FFF100
00AFF2006FFF9000
00EFF102EFFB0000
05FFC01CFFC10000
08FF70AFFE200000
09FF27FFF4001700
02963FFF85009F80
0002EFFA8F80DFD0
002DFFC0AFF1FFD3
01CFFD208FFFFFFD
08FFE3006FFFFFFC
0EFF600009EFFD51
3FFF2000005FF600
4FFF1000007FF700
1EFA0000003FF900
0141000000046100
ENDCHAR
STARTCHAR onehalf
ENCODING 189
SWIDTH 750 0
DWIDTH 18 0
BBX 17 19 0 -1
BITMAP
001100000002800000
00BE3000001DF20000
00EFD00000CFF30000
00BFF20009FFF10000
00AFF2006FFF900000
00EFF102EFFB000000
05FFC01CFFC1000000
08FF70AFFE20000000
09FF27FFF400000000
02963FFF758A850000
0002EFFA3FFFFFB000
002DFFC03FFFFFF600
01CFFD20047CFFF500
08FFE30001CFFF8000
0EFF60000BFFE64610
3FFF20005FFFFFFF80
4FFF10005FFFFFFF90
1EFA00001BFFDA7400
014100000000000000
ENDCHAR
STARTCHAR threequarters
ENCODING 190
SWIDTH 818 0
DWIDTH 20 0
BBX 18 19 1 -1
BITMAP
003456510000001400
0CFFFFFC000002DF00
3FFFFFFF30001DFF20
1BFFFFFB0001CFFF10
00EFFFB0000CFFF600
008FFFF300AFFF6000
08ABFFF80AFFF50000
2FFFFFF5AFFE400000
3FFFFC59FFE3002600
0122107FFE5400BF50
000008FFE4CF42FF90
00009FFE31FF96FFA0
000AFFE301FFFFFFF5
008FFE3000FFFFFFF3
02FFF400006DFFF720
07FFC0000003FF8000
0BFF80000006FF7000
0AFE20000004FF8000
014200000000561000
ENDCHAR
STARTCHAR questiondown
ENCODING 191
SWIDTH 556 0
DWIDTH 13 0
BBX 15 19 -2 -1
BITMAP
0000000000028100
00000000008FF900
0000000000BFFF10
0000000000AFFF00
000000000017B600
0000000000000000
0000000005970000
000000005FFF3000
0000004BFFFD0000
000019FFFFE40000
0007DFFFFD400000
01CFFFFFB1000000
0BFFFFD500000000
2FFFFC1000000000
6FFFFEC9879EA100
6FFFFFFFFFFFF400
5FFFFFFFFFFFE200
05AEFFFFFFFF5000
0000368ABBA30000
ENDCHAR
STARTCHAR Agrave
ENCODING 192
SWIDTH 702 0
DWIDTH 17 0
BBX 18 26 -1 -1
BITMAP
000000000B60000000
000000009FF9000000
00000000EFFFA00000
000000008FFFF90000
0000000004EFFF8000
00000000003DFFE000
000000000001AFC000
000000000030032000
0000000005FD810000
000000003EFFF70000
00000057EFFFFA0000
000005FFFFFFFB0000
00000DFFFFFFFE0000
00005FFFFFFFFF2000
0000DFFFF6BFFF5000
0004FFFFA08FFF9000
000BFFFE104FFFEB50
003FFFFA78AFFFFFFA
00AFFFFFFFFFFFFFF5
03FFFFCFFFFFFFFE30
09FFFB4FFFFDFFFE00
1EFFF3045300EFFF00
6FFFD000005CFFFE00
2FFF9000002DFFF600
09FB20000007FE6000
001000000000200000
ENDCHAR
STARTCHAR Aacute
ENCODING 193
SWIDTH 702 0
DWIDTH 17 0
BBX 18 27 -1 -1
BITMAP
0000000000003C2000
000000000006EFD000
00000000006FFFF300
0000000006FFFFA100
000000004FFFF70000
00000000BFFF500000
000000008FC3000000
000000001400000000
000000000030000000
0000000005FD810000
000000003EFFF70000
00000057EFFFFA0000
000005FFFFFFFB0000
00000DFFFFFFFE0000
00005FFFFFFFFF2000
0000DFFFF6BFFF5000
0004FFFFA08FFF9000
000BFFFE104FFFEB50
003FFFFA78AFFFFFFA
00AFFFFFFFFFFFFFF5
03FFFFCFFFFFFFFE30
09FFFB4FFFFDFFFE00
1EFFF3045300EFFF00
6FFFD000005CFFFE00
2FFF9000002DFFF600
09FB20000007FE6000
001000000000200000
ENDCHAR
STARTCHAR Acircumflex
ENCODING 194
SWIDTH 702 0
DWIDTH 17 0
BBX 18 26 -1 -1
BITMAP
000000000038300000
0000000007FFF70000
000000008FFFFF8000
00000019FFFAFFF910
0000005FFF808FFF50
0000001EF80008FE10
000000046000006400
000000000030000000
0000000005FD810000
000000003EFFF70000
00000057EFFFFA0000
000005FFFFFFFB0000
00000DFFFFFFFE0000
00005FFFFFFFFF2000
0000DFFFF6BFFF5000
0004FFFFA08FFF9000
000BFFFE104FFFEB50
003FFFFA78AFFFFFFA
00AFFFFFFFFFFFFFF5
03FFFFCFFFFFFFFE30
09FFFB4FFFFDFFFE00
1EFFF3045300EFFF00
6FFFD000005CFFFE00
2FFF9000002DFFF600
09FB20000007FE6000
001000000000200000
ENDCHAR
STARTCHAR Atilde
ENCODING 195
SWIDTH 702 0
DWIDTH 17 0
BBX 19 24 -1 -1
BITMAP
0000000019DEC304BD50
00000000CFFFFF6EFF40
00000007FFEFFFFFFA00
0000000EFF37FFFFD100
00000006730048961000
00000000003000000000
0000000005FD81000000
000000003EFFF7000000
00000057EFFFFA000000
000005FFFFFFFB000000
00000DFFFFFFFE000000
00005FFFFFFFFF200000
0000DFFFF6BFFF500000
0004FFFFA08FFF900000
000BFFFE104FFFEB5000
003FFFFA78AFFFFFFA00
00AFFFFFFFFFFFFFF500
03FFFFCFFFFFFFFE3000
09FFFB4FFFFDFFFE0000
1EFFF3045300EFFF0000
6FFFD000005CFFFE0000
2FFF9000002DFFF60000
09FB20000007FE600000
00100000000020000000
ENDCHAR
STARTCHAR Adieresis
ENCODING 196
SWIDTH 702 0
DWIDTH 17 0
BBX 18 24 -1 -1
BITMAP
000000037300046500
0000002FFE300EFF80
0000005FFF900EFFD0
0000003FFD2009FE40
000000034100003100
000000000030000000
0000000005FD810000
000000003EFFF70000
00000057EFFFFA0000
000005FFFFFFFB0000
00000DFFFFFFFE0000
00005FFFFFFFFF2000
0000DFFFF6BFFF5000
0004FFFFA08FFF9000
000BFFFE104FFFEB50
003FFFFA78AFFFFFFA
00AFFFFFFFFFFFFFF5
03FFFFCFFFFFFFFE30
09FFFB4FFFFDFFFE00
1EFFF3045300EFFF00
6FFFD000005CFFFE00
2FFF9000002DFFF600
09FB20000007FE6000
001000000000200000
ENDCHAR
STARTCHAR Aring
ENCODING 197
SWIDTH 702 0
DWIDTH 17 0
BBX 18 25 -1 -1
BITMAP
000000000000020000
000000000000AF4000
00000000001CFF7000
0000000001DFFFD000
000000000AFFAFF500
000000002FFB8FFA00
000000004FFFFFF900
000000000DFFFE8000
000000003EFFF70000
00000058FFFFFA0000
000005FFFFFFFB0000
00000DFFFFFFFE0000
00005FFFFFFFFF2000
0000DFFFF6BFFF5000
0004FFFFA08FFF9000
000BFFFE104FFFEB50
003FFFFA78AFFFFFFA
00AFFFFFFFFFFFFFF5
03FFFFCFFFFFFFFE30
09FFFB4FFFFDFFFE00
1EFFF3045300EFFF00
6FFFD000005CFFFE00
2FFF9000002DFFF600
09FB20000007FE6000
001000000000200000
ENDCHAR
STARTCHAR AE
ENCODING 198
SWIDTH 1153 0
DWIDTH 28 0
BBX 31 19 -2 -1
BITMAP
00000000000030000000000000132000
000000000006FD810000037ACEFFF700
00000000005FFFF4027BEFFFFFFFFF40
0000000169FFFFF56FFFFFFFFFFFFC10
0000000BFFFFFFF49FFFFFFFFFEB6000
0000007FFFFFFFF56FFFFFDC62000000
000002EFFFFEFFF62FFFF40000000000
00000BFFFF8AFFF70AFFFCBBCC100000
00004FFFF908FFF81EFFFFFFFFC30000
0001DFFFC007FFFDCFFFFFFFFFF70000
0008FFFF778CFFFFFFFFFFFFFD500000
003FFFFFFFFFFFFFFFFE576640000000
00CFFFDFFFFFFFFFFFF7000000000000
05FFFE3EFFFDEFFFFFE1002359C70000
1DFFF5035410DFFFFFFFEFFFFFFF8000
6FFFC000006CFFFFFFFFFFFFFFFFB000
5FFF7000003FFFFCFFFFFFFFFFFB1000
1DF80000000CFD509EFFFFDDB8400000
01100000000020000023200000000000
ENDCHAR
STARTCHAR Ccedilla
ENCODING 199
SWIDTH 611 0
DWIDTH 15 0
BBX 15 26 0 -8
BITMAP
0000000000220000
0000000018EFA000
00000007DFFFFC00
000004DFFFFFFF20
0002CFFFFFFFFC00
003DFFFFFFFD9100
03EFFFFFF9300000
1DFFFFFD30000000
8FFFFE6000000000
EFFFE30000000000
FFFE300000000000
EFFA000000000000
BFFB000000000000
6FFFB85422110000
1EFFFFFFFFFF9000
04FFFFFFFFFFF500
002DFFFFFFFFF500
00009FFDEFDD4000
0004FFB000000000
000AFFA300000000
0008FFFF70000000
000059EFF7000000
0000003EFE000000
01CDDFFFFD000000
00CFFFFFC2000000
0017786300000000
ENDCHAR
STARTCHAR Egrave
ENCODING 200
SWIDTH 626 0
DWIDTH 15 0
BBX 16 27 0 -1
BITMAP
0000001C40000000
000000CFF7000000
000002FFFF700000
000000AFFFF70000
00000006FFFF5000
000000004EFFC000
0000000003CF9000
0000000000041000
0000000000002300
000000269BDFFFA1
00169DFFFFFFFFF9
02DFFFFFFFFFFFF4
03FFFFFFFFFEC820
01FFFFFEC8300000
00BFFFA000000000
005FFFEBBCD40000
00AFFFFFFFFE6000
03FFFFFFFFFFC000
09FFFFFFFFF81000
3FFFF86765100000
9FFFC00000000000
BFFF5001347BB000
AFFFFEFFFFFFFD00
7FFFFFFFFFFFFE20
3FFFFFFFFFFFE400
05DFFFFEEC961000
0001321000000000
ENDCHAR
STARTCHAR Eacute
ENCODING 201
SWIDTH 626 0
DWIDTH 15 0
BBX 16 27 0 -1
BITMAP
000000000006B000
00000000009FF900
000000000AFFFE00
000000009FFFF800
00000008FFFE4000
0000000EFFD30000
0000000CFA100000
0000000230000000
0000000000002300
000000269BDFFFA1
00169DFFFFFFFFF9
02DFFFFFFFFFFFF4
03FFFFFFFFFEC820
01FFFFFEC8300000
00BFFFA000000000
005FFFEBBCD40000
00AFFFFFFFFE6000
03FFFFFFFFFFC000
09FFFFFFFFF81000
3FFFF86765100000
9FFFC00000000000
BFFF5001347BB000
AFFFFEFFFFFFFD00
7FFFFFFFFFFFFE20
3FFFFFFFFFFFE400
05DFFFFEEC961000
0001321000000000
ENDCHAR
STARTCHAR Ecircumflex
ENCODING 202
SWIDTH 626 0
DWIDTH 15 0
BBX 16 26 0 -1
BITMAP
0000000017500000
00000003EFFA1000
0000004EFFFFB100
000006FFFBEFFC20
00000FFFC14FFF90
00000AFC1005EF40
0000018000003700
0000000000002300
000000269BDFFFA1
00169DFFFFFFFFF9
02DFFFFFFFFFFFF4
03FFFFFFFFFEC820
01FFFFFEC8300000
00BFFFA000000000
005FFFEBBCD40000
00AFFFFFFFFE6000
03FFFFFFFFFFC000
09FFFFFFFFF81000
3FFFF86765100000
9FFFC00000000000
BFFF5001347BB000
AFFFFEFFFFFFFD00
7FFFFFFFFFFFFE20
3FFFFFFFFFFFE400
05DFFFFEEC961000
0001321000000000
ENDCHAR
STARTCHAR Edieresis
ENCODING 203
SWIDTH 626 0
DWIDTH 15 0
BBX 16 24 0 -1
BITMAP
0000025600027610
00000CFF6009FFC0
00001FFFE009FFF2
00000DFE5006EF80
0000025200001200
0000000000002300
000000269BDFFFA1
00169DFFFFFFFFF9
02DFFFFFFFFFFFF4
03FFFFFFFFFEC820
01FFFFFEC8300000
00BFFFA000000000
005FFFEBBCD40000
00AFFFFFFFFE6000
03FFFFFFFFFFC000
09FFFFFFFFF81000
3FFFF86765100000
9FFFC00000000000
BFFF5001347BB000
AFFFFEFFFFFFFD00
7FFFFFFFFFFFFE20
3FFFFFFFFFFFE400
05DFFFFEEC961000
0001321000000000
ENDCHAR
STARTCHAR Igrave
ENCODING 204
SWIDTH 515 0
DWIDTH 12 0
BBX 17 28 -1 -1
BITMAP
0000000A7000000000
0000008FFA10000000
000000DFFFB0000000
0000007FFFFA000000
00000003EFFF900000
000000002DFFF10000
00000000019FD00000
000000000002200000
000000000000000000
000000145567642000
0002CEFFFFFFFFF800
0004FFFFFFFFFFFF60
0002FFFFFFFFFFFC30
00008EBBFFF8320000
00000008FFF2000000
0000000BFFD0000000
0000001FFF90000000
0000005FFF50000000
000000BFFF10000000
000002FFFB00000000
000007FFF700000000
00000EFFF100000000
00006FFFA200000000
368AEFFFFFA0000000
CFFFFFFFFFFA000000
9FFFFFFFFFF5000000
4FFEB8785420000000
032000000000000000
ENDCHAR
STARTCHAR Iacute
ENCODING 205
SWIDTH 515 0
DWIDTH 12 0
BBX 17 28 -1 -1
BITMAP
00000000000004C200
0000000000007FFC00
000000000007FFFF30
00000000006FFFFA10
0000000005FFFF6000
000000000BFFE50000
0000000009FC300000
000000000140000000
000000000000000000
000000145567642000
0002CEFFFFFFFFF800
0004FFFFFFFFFFFF60
0002FFFFFFFFFFFC30
00008EBBFFF8320000
00000008FFF2000000
0000000BFFD0000000
0000001FFF90000000
0000005FFF50000000
000000BFFF10000000
000002FFFB00000000
000007FFF700000000
00000EFFF100000000
00006FFFA200000000
368AEFFFFFA0000000
CFFFFFFFFFFA000000
9FFFFFFFFFF5000000
4FFEB8785420000000
032000000000000000
ENDCHAR
STARTCHAR Icircumflex
ENCODING 206
SWIDTH 515 0
DWIDTH 12 0
BBX 17 27 -1 -1
BITMAP
000000000067100000
000000001CFFD20000
00000002DFFFFD2000
0000003DFFDCFFE400
000000CFFE21DFFD00
0000007FD3002DF800
000000082000019000
000000000000000000
000000145567642000
0002CEFFFFFFFFF800
0004FFFFFFFFFFFF60
0002FFFFFFFFFFFC30
00008EBBFFF8320000
00000008FFF2000000
0000000BFFD0000000
0000001FFF90000000
0000005FFF50000000
000000BFFF10000000
000002FFFB00000000
000007FFF700000000
00000EFFF100000000
00006FFFA200000000
368AEFFFFFA0000000
CFFFFFFFFFFA000000
9FFFFFFFFFF5000000
4FFEB8785420000000
032000000000000000
ENDCHAR
STARTCHAR Idieresis
ENCODING 207
SWIDTH 515 0
DWIDTH 12 0
BBX 17 25 -1 -1
BITMAP
000000038100056400
0000005FFC102FFF50
0000009FFF603FFF90
0000007FFA102BFC20
000000044000003100
000000000000000000
000000145567642000
0002CEFFFFFFFFF800
0004FFFFFFFFFFFF60
0002FFFFFFFFFFFC30
00008EBBFFF8320000
00000008FFF2000000
0000000BFFD0000000
0000001FFF90000000
0000005FFF50000000
000000BFFF10000000
000002FFFB00000000
000007FFF700000000
00000EFFF100000000
00006FFFA200000000
368AEFFFFFA0000000
CFFFFFFFFFFA000000
9FFFFFFFFFF5000000
4FFEB8785420000000
032000000000000000
ENDCHAR
STARTCHAR Eth
ENCODING 208
SWIDTH 656 0
DWIDTH 16 0
BBX 17 19 -1 -1
BITMAP
000032000000000000
0000BFB50000000000
0000CFFFD820000000
00009FFFFFF7000000
0000FFFFFFFFB10000
0000DFF28DFFFD2000
0000AFF3005CFFD100
047BEFFDA001CFF900
4FFFFFFFF8001CFF10
3FFFFFFFFC000CFF40
1FFFFFFC8101BFFF50
0675FFF4018EFFFE20
0006FFF48DFFFFF500
000BFFFFFFFFFE5000
000FFFFFFFFFB20000
000EFFFFFFC5000000
000BFFFFB400000000
0004FE920000000000
000021000000000000
ENDCHAR
STARTCHAR Ntilde
ENCODING 209
SWIDTH 684 0
DWIDTH 16 0
BBX 19 24 -1 0
BITMAP
0000000004CED8008CB0
000000005FFFFFA9FFB0
00000001EFFEFFFFFF30
00000007FFA2DFFFF600
00000003750017983000
00000000000000000000
00000011000000420000
000000AE700000CE5000
000002FFFA0002FFF700
000009FFFF5009FFFE00
00001EFFFF600CFFFC00
00008FFFFF300EFFF500
0001EFFFFE002FFFE000
0007FFFFF9005FFFB000
001EFFFFF9009FFF8000
007FFFFFF901EFFF6000
01EFFFFFF908FFFF5000
07FFFFFFFA5FFFFF2000
0DFFFFEFFFFFFFFC0000
4FFFFF4DFFFFFFF70000
1FFFFA04FFFFFFB00000
0BFFF3008FFFFE300000
04FFE00007FFE4000000
008E4000004620000000
ENDCHAR
STARTCHAR Ograve
ENCODING 210
SWIDTH 744 0
DWIDTH 18 0
BBX 17 26 0 -1
BITMAP
0000000001B5000000
000000000AFF800000
000000001FFFF90000
0000000009FFFF8000
00000000005FFFF600
000000000004EFFD00
0000000000002BFB00
00000000006B403100
000000001CFFE30000
00000002DFFFFE1000
0000005EFFFFFE2000
000006FFFFFFFE0000
00008FFFFFFFFF4000
0007FFFFFECEFFC000
004FFFFF7006FFF500
01EFFFF40000DFFD00
0AFFFE4000004FFF50
2FFFF60000000DFF80
7FFFB00000000DFFD0
AFFF40000004CFFFF0
BFFF300137CFFFFFC0
AFFFFFFFFFFFFFFF50
3FFFFFFFFFFFFFE400
08FFFFFFFFFFD81000
006DFFFFEC94000000
000022330000000000
ENDCHAR
STARTCHAR Oacute
ENCODING 211
SWIDTH 744 0
DWIDTH 18 0
BBX 17 27 0 -1
BITMAP
000000000003C20000
00000000006EFD0000
0000000006FFFF3000
000000006FFFFA1000
00000004FFFF700000
0000000BFFF5000000
00000008FC30000000
000000014000000000
00000000006B400000
000000001CFFE30000
00000002DFFFFE1000
0000005EFFFFFE2000
000006FFFFFFFE0000
00008FFFFFFFFF4000
0007FFFFFECEFFC000
004FFFFF7006FFF500
01EFFFF40000DFFD00
0AFFFE4000004FFF50
2FFFF60000000DFF80
7FFFB00000000DFFD0
AFFF40000004CFFFF0
BFFF300137CFFFFFC0
AFFFFFFFFFFFFFFF50
3FFFFFFFFFFFFFE400
08FFFFFFFFFFD81000
006DFFFFEC94000000
000022330000000000
ENDCHAR
STARTCHAR Ocircumflex
ENCODING 212
SWIDTH 744 0
DWIDTH 18 0
BBX 17 26 0 -1
BITMAP
000000000028400000
0000000004EFF90000
000000005FFFFFA000
00000007FFFBFFFB20
0000002FFFA05FFF80
0000000CFB1006FF30
000000028000004600
00000000006B400000
000000001CFFE30000
00000002DFFFFE1000
0000005EFFFFFE2000
000006FFFFFFFE0000
00008FFFFFFFFF4000
0007FFFFFECEFFC000
004FFFFF7006FFF500
01EFFFF40000DFFD00
0AFFFE4000004FFF50
2FFFF60000000DFF80
7FFFB00000000DFFD0
AFFF40000004CFFFF0
BFFF300137CFFFFFC0
AFFFFFFFFFFFFFFF50
3FFFFFFFFFFFFFE400
08FFFFFFFFFFD81000
006DFFFFEC94000000
000022330000000000
ENDCHAR
STARTCHAR Otilde
ENCODING 213
SWIDTH 744 0
DWIDTH 18 0
BBX 18 25 0 -1
BITMAP
000000004CED8008CB
00000005FFFFFA9FFB
0000001EFFEFFFFFF3
0000007FFA2DFFFF60
000000375001798300
000000000000000000
00000000006B400000
000000001CFFE30000
00000002DFFFFE1000
0000005EFFFFFE2000
000006FFFFFFFE0000
00008FFFFFFFFF4000
0007FFFFFECEFFC000
004FFFFF7006FFF500
01EFFFF40000DFFD00
0AFFFE4000004FFF50
2FFFF60000000DFF80
7FFFB00000000DFFD0
AFFF40000004CFFFF0
BFFF300137CFFFFFC0
AFFFFFFFFFFFFFFF50
3FFFFFFFFFFFFFE400
08FFFFFFFFFFD81000
006DFFFFEC94000000
000022330000000000
ENDCHAR
STARTCHAR Odieresis
ENCODING 214
SWIDTH 744 0
DWIDTH 18 0
BBX 17 24 0 -1
BITMAP
000000037300046500
0000002FFE200EFF80
0000006FFF900FFFC0
0000004FFC200AFD40
000000044100003100
00000000006B400000
000000001CFFE30000
00000002DFFFFE1000
0000005EFFFFFE2000
000006FFFFFFFE0000
00008FFFFFFFFF4000
0007FFFFFECEFFC000
004FFFFF7006FFF500
01EFFFF40000DFFD00
0AFFFE4000004FFF50
2FFFF60000000DFF80
7FFFB00000000DFFD0
AFFF40000004CFFFF0
BFFF300137CFFFFFC0
AFFFFFFFFFFFFFFF50
3FFFFFFFFFFFFFE400
08FFFFFFFFFFD81000
006DFFFFEC94000000
000022330000000000
ENDCHAR
STARTCHAR multiply
ENCODING 215
SWIDTH 490 0
DWIDTH 12 0
BBX 12 13 0 0
BITMAP
015100000020
05FD30003CF3
06FFE207FFF9
02FFFCBFFFE3
005FFFFFF910
000AFFFE5000
003EFFF60000
03EFFFFD0000
1EFFECFF9000
9FFD22EFF400
DFE2008FF800
EF60001EF500
6D1000037000
ENDCHAR
STARTCHAR Oslash
ENCODING 216
SWIDTH 744 0
DWIDTH 18 0
BBX 17 22 0 -4
BITMAP
00000000006B400650
000000001CFFE39FB0
00000002DFFFFFFFD0
0000005EFFFFFFFFC0
000006FFFFFFFFFF90
00008FFFFFFFFFFC10
0007FFFFFEFFFFF200
004FFFFF75FFFFF500
01EFFFF43EFFFFFC00
0AFFFE41EFFFAFFF50
2FFFF60AFFFA0DFF80
7FFFB08FFFD10DFFD0
AFFF47FFFE24CFFFF0
BFFF8FFFFBCFFFFFC0
AFFFFFFFFFFFFFFF50
3FFFFFFFFFFFFFE400
07FFFFFFFFFFD81000
00AFFFFFEC94000000
00BFFF530000000000
009FFF200000000000
003DF8000000000000
000010000000000000
ENDCHAR
STARTCHAR Ugrave
ENCODING 217
SWIDTH 695 0
DWIDTH 17 0
BBX 17 24 1 0
BITMAP
00001C400000000000
0000BFF70000000000
0002FFFF8000000000
00009FFFF700000000
000006FFFF60000000
0000004EFFC0000000
00000002CFA0031000
0000000004100DD200
0160000000002EF700
0CF4000000006FFB00
1FFF100000009FFF10
4FFF70000000CFFF40
6FFFC0000002FFFF10
9FFFB0000008FFFD00
BFFF7000002FFFF900
CFFF500001CFFFE200
CFFF40001CFFFF8000
BFFF6005DFFFFE1000
BFFFC8DFFFFFC20000
8FFFFFFFFFFE100000
1FFFFFFFFFF4000000
0BFFFFFFFE40000000
03FFFFFF9200000000
003ABC820000000000
ENDCHAR
STARTCHAR Uacute
ENCODING 218
SWIDTH 695 0
DWIDTH 17 0
BBX 17 25 1 0
BITMAP
000000000004C20000
00000000007FFC0000
0000000007FFFF3000
000000006FFFFA1000
00000005FFFF600000
0000000BFFE5000000
00000009FC30000000
000000014000031000
0000000000000DD200
0160000000002EF700
0CF4000000006FFB00
1FFF100000009FFF10
4FFF70000000CFFF40
6FFFC0000002FFFF10
9FFFB0000008FFFD00
BFFF7000002FFFF900
CFFF500001CFFFE200
CFFF40001CFFFF8000
BFFF6005DFFFFE1000
BFFFC8DFFFFFC20000
8FFFFFFFFFFE100000
1FFFFFFFFFF4000000
0BFFFFFFFE40000000
03FFFFFF9200000000
003ABC820000000000
ENDCHAR
STARTCHAR Ucircumflex
ENCODING 219
SWIDTH 695 0
DWIDTH 17 0
BBX 17 25 1 0
BITMAP
000000006710000000
0000001CFFD2000000
000002DFFFFD200000
00003DFFDCFFE40000
0000CFFE21DFFD0000
00007FD3002DF80000
000008200001900000
000000000000031000
0000000000000DD200
0160000000002EF700
0CF4000000006FFB00
1FFF100000009FFF10
4FFF70000000CFFF40
6FFFC0000002FFFF10
9FFFB0000008FFFD00
BFFF7000002FFFF900
CFFF500001CFFFE200
CFFF40001CFFFF8000
BFFF6005DFFFFE1000
BFFFC8DFFFFFC20000
8FFFFFFFFFFE100000
1FFFFFFFFFF4000000
0BFFFFFFFE40000000
03FFFFFF9200000000
003ABC820000000000
ENDCHAR
STARTCHAR Udieresis
ENCODING 220
SWIDTH 695 0
DWIDTH 17 0
BBX 17 23 1 0
BITMAP
000014800016620000
00008FFA005FFE3000
0000CFFF306FFF6000
0000AFF8003DFB1000
000015300000300000
000000000000031000
0000000000000DD200
0160000000002EF700
0CF4000000006FFB00
1FFF100000009FFF10
4FFF70000000CFFF40
6FFFC0000002FFFF10
9FFFB0000008FFFD00
BFFF7000002FFFF900
CFFF500001CFFFE200
CFFF40001CFFFF8000
BFFF6005DFFFFE1000
BFFFC8DFFFFFC20000
8FFFFFFFFFFE100000
1FFFFFFFFFF4000000
0BFFFFFFFE40000000
03FFFFFF9200000000
003ABC820000000000
ENDCHAR
STARTCHAR Yacute
ENCODING 221
SWIDTH 493 0
DWIDTH 12 0
BBX 14 28 1 -1
BITMAP
00000000009800
000000001BFF60
00000001CFFFB0
0000001CFFFE50
000000BFFFD200
000002FFFC1000
000001EF800000
00000032000000
00000000000000
16100000006900
9FE600001CFFA1
9FFE2000BFFFF6
6FFF600AFFFFE2
5FFF804FFFFE30
3FFFC2EFFFE400
0FFFECFFFF6000
0CFFFFFFF80000
06FFFFFFD10000
00DFFFFF400000
005FFFFB000000
00AFFFF2000000
03FFFF70000000
0BFFFD10000000
4FFFF600000000
BFFFC000000000
EFFF4000000000
9FFB0000000000
07B20000000000
ENDCHAR
STARTCHAR Thorn
ENCODING 222
SWIDTH 680 0
DWIDTH 16 0
BBX 17 19 0 -1
BITMAP
000042000000000000
0008F8000000000000
001FFD100000000000
007FFF742100000000
00BFFFFFFFEC930000
00EFFFFFFFFFFFB100
02FFFFFFFFFFFFFB00
06FFFF33334CFFFF30
0AFFFB00001CFFFF60
0EFFF80004DFFFFF40
1FFFF604CFFFFFF800
2FFFFBDFFFFFFE5000
3FFFFFFFFFFE810000
5FFFFFFFEA40000000
2FFFFFB60000000000
0EFFE0000000000000
09FFF0000000000000
03FF80000000000000
002100000000000000
ENDCHAR
STARTCHAR germandbls
ENCODING 223
SWIDTH 931 0
DWIDTH 22 0
BBX 25 16 0 -1
BITMAP
00000001367510000003576200
000016BFFFFFC0015AEFFFFE10
005AFFFFFFFFF89EFFFFFFFF90
1CFFFFFFFFFFFFFFFFFFFFFFD0
8FFFFE841227FFFFF952222210
AFFFFFA30007FFFFFC40000000
8FFFFFFF6005FFFFFFF9000000
06ACEFFFD10049CEFFFF300000
0000017DF900000016CFC00000
00000008FF000000005FF30000
0000007FFE00000005EFF20000
00016DFFF9000015CFFFC00000
09DFFFFFC1007DFFFFFE200000
0CFFFFFA10009FFFFFC2000000
0AFFFB4000007FFFC500000000
01642000000005520000000000
ENDCHAR
STARTCHAR agrave
ENCODING 224
SWIDTH 581 0
DWIDTH 14 0
BBX 15 24 -1 -1
BITMAP
00000007A0000000
0000004FFC200000
000000AFFFD20000
0000004EFFFD1000
00000001CFFFC100
000000001BFFF400
00000000007FF200
0000000000013000
0000000020000000
00000002EEA10000
0000002CFFF50000
00001CEFFFF70000
00008FFFFFFA0000
0001EFFFEFFD0000
0008FFFC6FFF1000
000EFFE22FFF6100
006FFF713EFFFE60
00DFFFFFFFFFFFA0
06FFFDFFFFFFF900
0CFFC4FFDAEFF500
3FFF401102EFF700
5FFF00002EFFF300
1DF8000007FF6000
0130000000410000
ENDCHAR
STARTCHAR aacute
ENCODING 225
SWIDTH 581 0
DWIDTH 14 0
BBX 15 24 -1 -1
BITMAP
00000000003C3000
0000000005EFE100
000000005FFFF400
00000005FFFFB100
0000003EFFF80000
0000009FFF600000
0000007FD4000000
0000000400000000
0000000020000000
00000002EEA10000
0000002CFFF50000
00001CEFFFF70000
00008FFFFFFA0000
0001EFFFEFFD0000
0008FFFC6FFF1000
000EFFE22FFF6100
006FFF713EFFFE60
00DFFFFFFFFFFFA0
06FFFDFFFFFFF900
0CFFC4FFDAEFF500
3FFF401102EFF700
5FFF00002EFFF300
1DF8000007FF6000
0130000000410000
ENDCHAR
STARTCHAR acircumflex
ENCODING 226
SWIDTH 581 0
DWIDTH 14 0
BBX 15 23 -1 -1
BITMAP
0000000028300000
00000006FFF80000
0000006FFFFF9000
000008FFFAFFFA10
00003FFF906FFF60
00000DF90007FE20
0000037000005500
0000000020000000
00000002EEA10000
0000002CFFF50000
00001CEFFFF70000
00008FFFFFFA0000
0001EFFFEFFD0000
0008FFFC6FFF1000
000EFFE22FFF6100
006FFF713EFFFE60
00DFFFFFFFFFFFA0
06FFFDFFFFFFF900
0CFFC4FFDAEFF500
3FFF401102EFF700
5FFF00002EFFF300
1DF8000007FF6000
0130000000410000
ENDCHAR
STARTCHAR atilde
ENCODING 227
SWIDTH 581 0
DWIDTH 14 0
BBX 17 21 -1 -1
BITMAP
0000003BED9107CC10
000003FFFFFC7FFD00
00000CFFEFFFFFF400
00005FFC1CFFFF8000
000027610069840000
000000002000000000
00000002EEA1000000
0000002CFFF5000000
00001CEFFFF7000000
00008FFFFFFA000000
0001EFFFEFFD000000
0008FFFC6FFF100000
000EFFE22FFF610000
006FFF713EFFFE6000
00DFFFFFFFFFFFA000
06FFFDFFFFFFF90000
0CFFC4FFDAEFF50000
3FFF401102EFF70000
5FFF00002EFFF30000
1DF8000007FF600000
013000000041000000
ENDCHAR
STARTCHAR adieresis
ENCODING 228
SWIDTH 581 0
DWIDTH 14 0
BBX 16 22 -1 -1
BITMAP
0000014800016630
000008FFA005FFE3
00000CFFF305FFF7
000009FF8003CFB1
0000014400000300
0000000000000000
0000000020000000
00000002EEA10000
0000002CFFF50000
00001CEFFFF70000
00008FFFFFFA0000
0001EFFFEFFD0000
0008FFFC6FFF1000
000EFFE22FFF6100
006FFF713EFFFE60
00DFFFFFFFFFFFA0
06FFFDFFFFFFF900
0CFFC4FFDAEFF500
3FFF401102EFF700
5FFF00002EFFF300
1DF8000007FF6000
0130000000410000
ENDCHAR
STARTCHAR aring
ENCODING 229
SWIDTH 581 0
DWIDTH 14 0
BBX 15 21 -1 -1
BITMAP
00000000004B1000
0000000006FF8000
000000008FFFB000
00000006FFEFF400
0000000EFC2FFA00
0000002FFFFFFC00
0000001EFFFFE300
0000001CFFF80000
00001CEFFFF70000
00008FFFFFFA0000
0001EFFFEFFD0000
0008FFFC6FFF1000
000EFFE22FFF6100
006FFF713EFFFE60
00DFFFFFFFFFFFA0
06FFFDFFFFFFF900
0CFFC4FFDAEFF500
3FFF401102EFF700
5FFF00002EFFF300
1DF8000007FF6000
0130000000410000
ENDCHAR
STARTCHAR ae
ENCODING 230
SWIDTH 948 0
DWIDTH 23 0
BBX 26 16 -2 -1
BITMAP
00000000003000000000003300
0000000006FE7000048BDFFFB2
000000007FFFC06CFFFFFFFFF4
0000009EFFFFD4FFFFFFFFFD70
000005FFFFFFD2FFFFFE952000
00001EFFFEFFE0CFFC10000000
00009FFFA7FFF08FFFDDDB1000
0003FFFC05FFF3DFFFFFFFD000
000CFFE327FFFFFFFFFFFF8000
007FFFFFFFFFFFFFD9A9820000
02EFFDFFFFFFFFFF5000000000
0AFFE3FFDBEFFFFE33457BD300
3FFF501102DFFFFFFFFFFFFF10
7FFD00003FFFFFFFFFFFFFFB00
3FE500000AFE57FFFFFFEB6000
02100000014100134311000000
ENDCHAR
STARTCHAR ccedilla
ENCODING 231
SWIDTH 513 0
DWIDTH 12 0
BBX 12 22 0 -7
BITMAP
000000001300
00000006EFB0
000005DFFFFB
0003BFFFFFFA
006FFFFFFFB1
06FFFFFC6100
3FFFFE800000
CFFFC2000000
FFFB10000000
EFF200000000
CFF100000000
7FFEA7554410
1DFFFFFFFFB0
03CFFFFFFFF3
0016EFFFFF70
0007FF421000
000DFE710000
000AFFFD2000
000037DFC000
004457DFF200
02FFFFFFA000
006CCCA50000
ENDCHAR
STARTCHAR egrave
ENCODING 232
SWIDTH 521 0
DWIDTH 13 0
BBX 14 24 0 -1
BITMAP
0001B500000000
000AFF80000000
001FFFF9000000
0009FFFF800000
00005EFFF70000
000003EFFD0000
0000002BFB0000
00000000320000
00000000013200
0000158BEFFF80
017CFFFFFFFFF1
07FFFFFFFFFC40
05FFFFFE842000
02FFFA10000000
00BFFECDE80000
03FFFFFFFF9000
09FFFFFFFE5000
3EFFC999710000
9FFF2000000000
BFFB23558CB100
9FFFFFFFFFFC00
6FFFFFFFFFF700
0BFFFFFFDA4000
00244311000000
ENDCHAR
STARTCHAR eacute
ENCODING 233
SWIDTH 521 0
DWIDTH 13 0
BBX 14 24 0 -1
BITMAP
0000000005B100
000000008FFB00
00000008FFFF10
0000008FFFF900
000006FFFF5000
00000DFFE40000
00000AFB200000
00000130000000
00000000013200
0000158BEFFF80
017CFFFFFFFFF1
07FFFFFFFFFC40
05FFFFFE842000
02FFFA10000000
00BFFECDE80000
03FFFFFFFF9000
09FFFFFFFE5000
3EFFC999710000
9FFF2000000000
BFFB23558CB100
9FFFFFFFFFFC00
6FFFFFFFFFF700
0BFFFFFFDA4000
00244311000000
ENDCHAR
STARTCHAR ecircumflex
ENCODING 234
SWIDTH 521 0
DWIDTH 13 0
BBX 14 23 0 -1
BITMAP
00000001750000
0000003DFFB100
000004EFFFFC10
00005FFFBEFFC2
0000FFFC13EFFA
0000AFC1004EF5
00001800000370
00000000013200
0000158BEFFF80
017CFFFFFFFFF1
07FFFFFFFFFC40
05FFFFFE842000
02FFFA10000000
00BFFECDE80000
03FFFFFFFF9000
09FFFFFFFE5000
3EFFC999710000
9FFF2000000000
BFFB23558CB100
9FFFFFFFFFFC00
6FFFFFFFFFF700
0BFFFFFFDA4000
00244311000000
ENDCHAR
STARTCHAR edieresis
ENCODING 235
SWIDTH 521 0
DWIDTH 13 0
BBX 15 22 0 -1
BITMAP
0000148000166300
00008FFA005FFE30
0000CFFF305FFF70
00009FF8003CFB10
0000144000003000
0000000000000000
0000000001320000
0000158BEFFF8000
017CFFFFFFFFF100
07FFFFFFFFFC4000
05FFFFFE84200000
02FFFA1000000000
00BFFECDE8000000
03FFFFFFFF900000
09FFFFFFFE500000
3EFFC99971000000
9FFF200000000000
BFFB23558CB10000
9FFFFFFFFFFC0000
6FFFFFFFFFF70000
0BFFFFFFDA400000
0024431100000000
ENDCHAR
STARTCHAR igrave
ENCODING 236
SWIDTH 320 0
DWIDTH 8 0
BBX 8 24 1 -1
BITMAP
00B60000
09FF9000
0FFFF900
08FFFF90
004EFFF7
0003DFFE
00001AFB
00000032
00031000
006F7000
00DFD100
03FFF200
07FFF500
09FFF200
0DFFB000
2FFF7000
6FFF3000
7FFF0000
8FFD0000
9FFD0000
6FFE0000
2FFF0000
0BFC0000
02410000
ENDCHAR
STARTCHAR iacute
ENCODING 237
SWIDTH 320 0
DWIDTH 8 0
BBX 12 24 1 -1
BITMAP
000000001B60
00000003DFF3
0000002EFFF8
000002DFFFD3
00001CFFFB10
00005FFFA000
00003FE60000
000004100000
000310000000
006F70000000
00DFD1000000
03FFF2000000
07FFF5000000
09FFF2000000
0DFFB0000000
2FFF70000000
6FFF30000000
7FFF00000000
8FFD00000000
9FFD00000000
6FFE00000000
2FFF00000000
0BFC00000000
024100000000
ENDCHAR
STARTCHAR icircumflex
ENCODING 238
SWIDTH 320 0
DWIDTH 8 0
BBX 10 23 1 -1
BITMAP
0001760000
002DFFC100
02EFFFFD20
4EFFCDFFD3
DFFD12EFFC
8FD2003DF7
0810000280
0003100000
006F700000
00DFD10000
03FFF20000
07FFF50000
09FFF20000
0DFFB00000
2FFF700000
6FFF300000
7FFF000000
8FFD000000
9FFD000000
6FFE000000
2FFF000000
0BFC000000
0241000000
ENDCHAR
STARTCHAR idieresis
ENCODING 239
SWIDTH 320 0
DWIDTH 8 0
BBX 12 22 0 -1
BITMAP
025500027610
0DFF500AFFB0
2FFFD00BFFF1
1EFE4007EE70
024200002200
000000000000
000031000000
0006F7000000
000DFD100000
003FFF200000
007FFF500000
009FFF200000
00DFFB000000
02FFF7000000
06FFF3000000
07FFF0000000
08FFD0000000
09FFD0000000
06FFE0000000
02FFF0000000
00BFC0000000
002410000000
ENDCHAR
STARTCHAR eth
ENCODING 240
SWIDTH 541 0
DWIDTH 13 0
BBX 14 16 -1 -1
BITMAP
00034000000000
0009FD61000000
0007FFFFA10000
000AFFFFFE4000
000BFC7DFFF700
0008FE004CFF50
38CEFFE501BFE1
8FFFFFFE101EF7
6FFFFFEA107FF9
1B8EFF004BFFF6
002FFD4AFFFFB0
006FFFFFFFFA10
009FFFFFFD4000
007FFFFD600000
002FFB40000000
00022000000000
ENDCHAR
STARTCHAR ntilde
ENCODING 241
SWIDTH 564 0
DWIDTH 14 0
BBX 18 22 -1 -1
BITMAP
000000006CED601AD8
00000008FFFFF8BFF8
0000003FFFEFFFFFD1
000000BFF74EFFFE30
000000474002897200
000000000000000000
000002100000400000
00000AE60001FB2000
00002FFF6007FFC000
00009FFFC00CFFF100
0002FFFFA00EFFA000
0008FFFF602FFF4000
001EFFFF205FFF1000
008FFFFF20AFFD0000
01EFFFFF22FFFB0000
07FFFFFF3BFFF90000
1EFFFEFFEFFFF40000
4FFFF4DFFFFFD00000
2FFFA04FFFFF400000
0AFF6006FFF8000000
02EC10005A50000000
001000000000000000
ENDCHAR
STARTCHAR ograve
ENCODING 242
SWIDTH 628 0
DWIDTH 15 0
BBX 15 23 0 -1
BITMAP
00000007A0000000
0000005FFC200000
000000AFFFD10000
0000005EFFFD1000
00000002CFFFB100
000000001BFFF400
00000000007FF100
000000002A323000
00000008EFE30000
0000009FFFFD0000
00001CFFFFFA0000
0002CFFFFFFD0000
002DFFFEDDFF6000
00CFFFC203FFD000
08FFFC1000AFF600
1FFFC000002FFB00
6FFF3000000EFF10
AFF9000002BFFF30
BFFA3246AFFFFF10
9FFFFFFFFFFFF600
2EFFFFFFFFFD4000
03CFFFFFD9300000
0003454100000000
ENDCHAR
STARTCHAR oacute
ENCODING 243
SWIDTH 628 0
DWIDTH 15 0
BBX 15 24 0 -1
BITMAP
0000000000890000
000000001BFF7000
00000001CFFFC000
0000001BFFFE6000
000000AFFFD20000
000002FFFC200000
000000EF91000000
0000003200000000
000000002A300000
00000008EFE30000
0000009FFFFD0000
00001CFFFFFA0000
0002CFFFFFFD0000
002DFFFEDDFF6000
00CFFFC203FFD000
08FFFC1000AFF600
1FFFC000002FFB00
6FFF3000000EFF10
AFF9000002BFFF30
BFFA3246AFFFFF10
9FFFFFFFFFFFF600
2EFFFFFFFFFD4000
03CFFFFFD9300000
0003454100000000
ENDCHAR
STARTCHAR ocircumflex
ENCODING 244
SWIDTH 628 0
DWIDTH 15 0
BBX 15 23 0 -1
BITMAP
0000000006710000
00000001CFFD2000
0000002DFFFFD200
000003DFFDCFFE40
00000CFFE21DFFD0
000007FD3002DF80
0000008200001900
000000002A300000
00000008EFE30000
0000009FFFFD0000
00001CFFFFFA0000
0002CFFFFFFD0000
002DFFFEDDFF6000
00CFFFC203FFD000
08FFFC1000AFF600
1FFFC000002FFB00
6FFF3000000EFF10
AFF9000002BFFF30
BFFA3246AFFFFF10
9FFFFFFFFFFFF600
2EFFFFFFFFFD4000
03CFFFFFD9300000
0003454100000000
ENDCHAR
STARTCHAR otilde
ENCODING 245
SWIDTH 628 0
DWIDTH 15 0
BBX 17 21 0 -1
BITMAP
00000006CED601AD80
0000008FFFFF8BFF80
000003FFFEFFFFFD10
00000BFF74EFFFE300
000004740028972000
000000002A30000000
00000008EFE3000000
0000009FFFFD000000
00001CFFFFFA000000
0002CFFFFFFD000000
002DFFFEDDFF600000
00CFFFC203FFD00000
08FFFC1000AFF60000
1FFFC000002FFB0000
6FFF3000000EFF1000
AFF9000002BFFF3000
BFFA3246AFFFFF1000
9FFFFFFFFFFFF60000
2EFFFFFFFFFD400000
03CFFFFFD930000000
000345410000000000
ENDCHAR
STARTCHAR odieresis
ENCODING 246
SWIDTH 628 0
DWIDTH 15 0
BBX 16 22 0 -1
BITMAP
0000003810005640
000005FFC102FFF5
000009FFF603FFF9
000007FFA102BFC2
0000004400000310
0000000000000000
000000002A300000
00000008EFE30000
0000009FFFFD0000
00001CFFFFFA0000
0002CFFFFFFD0000
002DFFFEDDFF6000
00CFFFC203FFD000
08FFFC1000AFF600
1FFFC000002FFB00
6FFF3000000EFF10
AFF9000002BFFF30
BFFA3246AFFFFF10
9FFFFFFFFFFFF600
2EFFFFFFFFFD4000
03CFFFFFD9300000
0003454100000000
ENDCHAR
STARTCHAR divide
ENCODING 247
SWIDTH 559 0
DWIDTH 13 0
BBX 13 15 0 -1
BITMAP
000001BC300000
000008FFE20000
000009FFF30000
000007FFC00000
00000143100000
00256678864000
BFFFFFFFFFFB10
BFFFFFFFFFFF60
6FFFDBBAA87300
04300000000000
0001CC81000000
000AFFF4000000
0009FFF1000000
0003EF80000000
00002300000000
ENDCHAR
STARTCHAR oslash
ENCODING 248
SWIDTH 632 0
DWIDTH 15 0
BBX 15 18 0 -3
BITMAP
000000002A401700
00000008EFE5DF20
0000008FFFFFFF30
00001CFFFFFFFF10
0002CFFFFFFFF900
001DFFFEFFFFC000
00BFFFD3CFFFE100
07FFFC1BFFFFF700
1EFFC17FFE4FFC00
6FFF35FFF60DFF20
AFFA4FFF919FFF50
BFFAEFFEAEFFFF20
9FFFFFFFFFFFF800
2EFFFFFFFFFE6000
03FFFFFFFB510000
00FFF85200000000
00EFF30000000000
005B800000000000
ENDCHAR
STARTCHAR ugrave
ENCODING 249
SWIDTH 584 0
DWIDTH 14 0
BBX 14 23 1 0
BITMAP
00006A10000000
0003FFC2000000
0009FFFD200000
0004DFFFD20000
00001BFFFC1000
000000AFFF5000
00000007EF2000
00000000130000
00000000000300
00000000000F90
07500000005FE0
2FE30000008FF5
5FFA000000BFF8
7FFF100001FFF7
AFFE000007FFF4
BFFB00002EFFD0
CFF90001DFFF60
CFFA004DFFFC00
BFFE7CFFFFC200
7FFFFFFFFD1000
2FFFFFFFE40000
0BFFFFFC300000
01ADEB50000000
ENDCHAR
STARTCHAR uacute
ENCODING 250
SWIDTH 584 0
DWIDTH 14 0
BBX 14 22 1 0
BITMAP
00000000009800
000000001BFF60
00000001CFFFB0
0000001CFFFE50
000000BFFFD200
000002FFFC1000
000001EF800000
00000032000300
00000000000F90
07500000005FE0
2FE30000008FF5
5FFA000000BFF8
7FFF100001FFF7
AFFE000007FFF4
BFFB00002EFFD0
CFF90001DFFF60
CFFA004DFFFC00
BFFE7CFFFFC200
7FFFFFFFFD1000
2FFFFFFFE40000
0BFFFFFC300000
01ADEB50000000
ENDCHAR
STARTCHAR ucircumflex
ENCODING 251
SWIDTH 584 0
DWIDTH 14 0
BBX 14 22 1 0
BITMAP
00000006710000
000001BFFD2000
00001CFFFFE300
0003DFFDCFFE50
000BFFE21DFFE0
0006FE3002CF90
00008200001910
00000000000300
00000000000F90
07500000005FE0
2FE30000008FF5
5FFA000000BFF8
7FFF100001FFF7
AFFE000007FFF4
BFFB00002EFFD0
CFF90001DFFF60
CFFA004DFFFC00
BFFE7CFFFFC200
7FFFFFFFFD1000
2FFFFFFFE40000
0BFFFFFC300000
01ADEB50000000
ENDCHAR
STARTCHAR udieresis
ENCODING 252
SWIDTH 584 0
DWIDTH 14 0
BBX 14 21 1 0
BITMAP
00014800016630
0008FFA005FFE3
000CFFF305FFF7
0009FF8003CFB1
00014400000300
00000000000000
00000000000300
00000000000F90
07500000005FE0
2FE30000008FF5
5FFA000000BFF8
7FFF100001FFF7
AFFE000007FFF4
BFFB00002EFFD0
CFF90001DFFF60
CFFA004DFFFC00
BFFE7CFFFFC200
7FFFFFFFFD1000
2FFFFFFFE40000
0BFFFFFC300000
01ADEB50000000
ENDCHAR
STARTCHAR yacute
ENCODING 253
SWIDTH 400 0
DWIDTH 10 0
BBX 13 25 1 -1
BITMAP
0000000005B100
000000008FFA00
00000009FFFF10
0000008FFFF900
000007FFFE5000
00000DFFE30000
00000BFB200000
00000230000000
00000000000000
24000000380000
AFC10006FFB100
9FF8006FFFF200
7FFB03FFFF8000
5FFE1CFFF80000
2FFFBFFFA00000
0EFFFFFD000000
08FFFFF3000000
01DFFFA0000000
01DFFE20000000
08FFF700000000
1EFFC000000000
8FFF5000000000
EFFB0000000000
CFF40000000000
2A800000000000
ENDCHAR
STARTCHAR thorn
ENCODING 254
SWIDTH 579 0
DWIDTH 14 0
BBX 14 16 0 -1
BITMAP
00067000000000
005FE000000000
00AFF710000000
01EFFFFFEB9400
03FFFFFFFFFFB1
06FFFDCCDFFFF8
0AFFF10005FFFE
0EFFC0004DFFFE
2FFFA04BFFFFF6
3FFFCCFFFFFD40
4FFFFFFFFC6000
5FFFFFD8300000
1FFF9400000000
0CFF5000000000
06FD1000000000
00100000000000
ENDCHAR
STARTCHAR ydieresis
ENCODING 255
SWIDTH 400 0
DWIDTH 10 0
BBX 13 22 1 -1
BITMAP
00148000166300
007FFB004FFE30
00BFFF405FFF70
009FF9003CFB10
00044000004000
00000000000000
24000000380000
AFC10006FFB100
9FF8006FFFF200
7FFB03FFFF8000
5FFE1CFFF80000
2FFFBFFFA00000
0EFFFFFD000000
08FFFFF3000000
01DFFFA0000000
01DFFE20000000
08FFF700000000
1EFFC000000000
8FFF5000000000
EFFB0000000000
CFF40000000000
2A800000000000
ENDCHAR
STARTCHAR dotlessi
ENCODING 305
SWIDTH 320 0
DWIDTH 8 0
BBX 6 16 1 -1
BITMAP
000310
006F70
00DFD1
03FFF2
07FFF5
09FFF2
0DFFB0
2FFF70
6FFF30
7FFF00
8FFD00
9FFD00
6FFE00
2FFF00
0BFC00
024100
ENDCHAR
STARTCHAR Lslash
ENCODING 321
SWIDTH 632 0
DWIDTH 15 0
BBX 18 19 -3 -1
BITMAP
000000054000000000
0000000EFE70000000
0000004FFFF2000000
0000008FFFE1000000
000000EFFFA0000000
000004FFFF40000000
00000AFFFFC9200000
00016EFFFFFFD00000
038EFFFFFFFB300000
3FFFFFFFE720000000
0EFFFFFF6000000000
03CCFFFF1000000000
0009FFFC0000000000
000BFFFB48BCCDB400
000BFFFFFFFFFFFFC3
0007FFFFFFFFFFFFF7
0001EFFFFFFFFFFFF9
00006FFFFC75434540
000001431000000000
ENDCHAR
STARTCHAR lslash
ENCODING 322
SWIDTH 533 0
DWIDTH 13 0
BBX 16 16 -3 -1
BITMAP
0000002500000000
0000009FF6000000
000000EFFD000000
000004FFF8000000
000009FFF3000000
00000EFFE8500000
00028FFFFFF80000
05AFFFFFFF910000
5FFFFFFD61000000
0EFFFFF500000000
027AFFF100000000
000BFFE69CDDD610
000AFFFFFFFFFFE1
0005FFFFFFFFFFF3
0000CFFFEA878971
0000045300000000
ENDCHAR
STARTCHAR OE
ENCODING 338
SWIDTH 1212 0
DWIDTH 29 0
BBX 30 19 0 -1
BITMAP
00000000006B400000000000002310
000000001CFFE3000000258BDFFFB2
00000002DFFFFE10059DFFFFFFFFFA
0000005EFFFFFE21DFFFFFFFFFFFF5
000006FFFFFFFE02FFFFFFFFFFC920
00008FFFFFFFFF40FFFFFEC9300000
0007FFFFFECEFFC0AFFFA000000000
004FFFFF7006FFF54FFFEBBCD50000
01EFFFF40000DFFCAFFFFFFFFF7000
0AFFFE4000004FFFFFFFFFFFFFD000
2FFFF60000000DFFFFFFFFFFF91000
7FFFB00000000DFFFFF86765200000
AFFF40000004CFFFFFD00000000000
BFFF300137CFFFFFFF6001347BB100
AFFFFFFFFFFFFFFFFFFEFFFFFFFD00
3FFFFFFFFFFFFFFFFFFFFFFFFFFF20
08FFFFFFFFFFD83EFFFFFFFFFFE500
006DFFFFEC940004DFFFFEEC961000
000022330000000001321000000000
ENDCHAR
STARTCHAR oe
ENCODING 339
SWIDTH 1010 0
DWIDTH 24 0
BBX 25 16 0 -1
BITMAP
000000002B4000000000013200
00000008EFE3000026ACEFFE60
0000009FFFFD029EFFFFFFFFC0
00001DFFFFFA0BFFFFFFFFFB20
0002DFFFFFFD09FFFFFC741000
002DFFFEDDFF65FFF600000000
00CFFFC203FFD1EFFDDDE50000
08FFFB1000AFFCFFFFFFFF6000
1FFFC000002FFFFFFFFFFD3000
6FFF2000000EFFFFAA99600000
AFF9000002BFFFFC0000000000
BFFA3346BFFFFFF823569D9000
9FFFFFFFFFFFFFFFFFFFFFF800
2EFFFFFFFFFDCFFFFFFFFFF400
03CFFFFFE9302CFFFFFFC92000
00034541000000344210000000
ENDCHAR
STARTCHAR Scaron
ENCODING 352
SWIDTH 576 0
DWIDTH 14 0
BBX 17 27 0 -1
BITMAP
000000610000060000
000005FC2001BF7000
00000BFFD11CFFD000
000005EFFCAFFF6000
0000003EFFFFE40000
00000003DFFE300000
000000001992000000
000000000000000000
000000000257763000
00000048DFFFFFF300
0003BEFFFFFFFFFC00
03CFFFFFFFFFFFFF50
3FFFFFFFFDBDCCCC20
9FFFFFF61000000000
AFFFFFFD7000000000
8FFFFFFFFD10000000
19EFFFFFFF70000000
0002468EFFF3000000
000000005FFB000000
000000005FFE000000
00000005EFFD000000
000005CFFFF7000000
049AEFFFFFC1000000
09FFFFFFFB10000000
09FFFFFE8000000000
05FFFD810000000000
004420000000000000
ENDCHAR
STARTCHAR scaron
ENCODING 353
SWIDTH 463 0
DWIDTH 11 0
BBX 14 24 0 -1
BITMAP
00015000003400
000BF70004EE20
003FFF704FFF70
001AFFF8EFFC20
00008FFFFFB100
000007FFFB1000
0000004A600000
00000000000000
00000001367510
000016BFFFFFC0
005AFFFFFFFFF6
1CFFFFFFFFFFFA
8FFFFE84122230
AFFFFFA3000000
8FFFFFFF600000
06ACEFFFD10000
0000017DF90000
00000008FF0000
0000007FFE0000
00016DFFF90000
09DFFFFFC10000
0CFFFFFA100000
0AFFFB40000000
01642000000000
ENDCHAR
STARTCHAR Ydieresis
ENCODING 376
SWIDTH 493 0
DWIDTH 12 0
BBX 14 25 1 -1
BITMAP
00014800016630
0008FFA005FFE3
000CFFF305FFF7
0009FF8003CFB1
00014400000300
00000000000000
16100000006900
9FE600001CFFA1
9FFE2000BFFFF6
6FFF600AFFFFE2
5FFF804FFFFE30
3FFFC2EFFFE400
0FFFECFFFF6000
0CFFFFFFF80000
06FFFFFFD10000
00DFFFFF400000
005FFFFB000000
00AFFFF2000000
03FFFF70000000
0BFFFD10000000
4FFFF600000000
BFFFC000000000
EFFF4000000000
9FFB0000000000
07B20000000000
ENDCHAR
STARTCHAR Zcaron
ENCODING 381
SWIDTH 664 0
DWIDTH 16 0
BBX 18 27 -1 -1
BITMAP
000000000520000061
000000003FD3000AF9
000000009FFE20AFFF
000000004EFFD9FFF8
0000000002DFFFFF60
00000000002CFFE500
0000000000018A2000
000000000000000000
000000133101101100
00006FFFFFFFFFFF80
00007FFFFFFFFFFFF4
00004FFFFFFFFFFFF9
00000AFEDCBFFFFFF5
00000010009FFFFF90
000000001BFFFFE500
00000003DFFFFE3000
0000019FFFFFE30000
00004EFFFFFD200000
0008FFFFFF80000000
02CFFFFFD400000000
0AFFFFF91000042000
1FFFFF600169DFE200
3FFFFE67BFFFFFFE00
3FFFFFFFFFFFFFF800
0BFFFFFFFFFFFA3000
03EFFFFFFCB6100000
0038EEB73000000000
ENDCHAR
STARTCHAR zcaron
ENCODING 382
SWIDTH 547 0
DWIDTH 13 0
BBX 16 25 -1 -1
BITMAP
0000000610000060
0000005FC2001BF7
000000BFFD11CFFD
0000005EFFCAFFF6
00000003EFFFFE40
000000003DFFE300
0000000001992000
0000000000000000
0000000000000000
0000023311212000
0001FFFFFFFFFE20
0001FFFFFFFFFFB0
0000AFFFFFFFFFB0
000015423DFFFE30
00000003EFFFC200
0000007FFFFB1000
00003DFFFFA00000
0006FFFFF8000000
02BFFFFD30000000
0AFFFF9100041000
1FFFF5016AEFA200
3FFFFBCFFFFFF600
2EFFFFFFFFFE8000
07FFFFFFEB610000
006CEB8300000000
ENDCHAR
STARTCHAR circumflex
ENCODING 710
SWIDTH 754 0
DWIDTH 18 0
BBX 11 7 5 12
BITMAP
000038300000
0007FFF70000
008FFFFF8000
19FFFAFFF910
5FFF808FFF50
1EF80008FE10
046000006400
ENDCHAR
STARTCHAR caron
ENCODING 711
SWIDTH 754 0
DWIDTH 18 0
BBX 11 7 5 12
BITMAP
024000004200
0DF60006FD00
5FFF505FFF50
1BFFF8FFFB10
00AFFFFFA000
0009FFF90000
00005A500000
ENDCHAR
STARTCHAR breve
ENCODING 728
SWIDTH 754 0
DWIDTH 18 0
BBX 11 6 5 13
BITMAP
024000004200
0DF50005FD00
4FFF747FFF40
2DFFFFFFFD20
01CFFFFFC100
00048B840000
ENDCHAR
STARTCHAR dotaccent
ENCODING 729
SWIDTH 754 0
DWIDTH 18 0
BBX 5 5 8 13
BITMAP
038200
4FFD20
7FFF70
5FFB10
044100
ENDCHAR
STARTCHAR ring
ENCODING 730
SWIDTH 754 0
DWIDTH 18 0
BBX 7 8 7 12
BITMAP
00017100
002CFB00
03DFFC00
1EFFFF50
9FF4DFB0
EFECFFF0
EFFFFF90
4DEDA400
ENDCHAR
STARTCHAR ogonek
ENCODING 731
SWIDTH 754 0
DWIDTH 18 0
BBX 10 8 7 -7
BITMAP
1C50000000
9F60000000
DF80000000
CFB0000000
8FFB865520
1DFFFFFFD0
019EFFFFD1
0000356510
ENDCHAR
STARTCHAR tilde
ENCODING 732
SWIDTH 754 0
DWIDTH 18 0
BBX 13 5 4 13
BITMAP
002ADEA205BC20
01EFFFFD6FFE10
0AFFEFFFFFF700
3FFE1AFFFFA000
17620059850000
ENDCHAR
STARTCHAR hungarumlaut
ENCODING 733
SWIDTH 754 0
DWIDTH 18 0
BBX 15 8 3 10
BITMAP
000007A00005C100
0001AFF7008FFB00
000BFFFD08FFFF10
00BFFFE68FFFF900
09FFFE36FFFF5000
1FFFC20CFFE40000
0EF9100AFB200000
0220000130000000
ENDCHAR
STARTCHAR endash
ENCODING 8211
SWIDTH 588 0
DWIDTH 14 0
BBX 13 5 0 4
BITMAP
00000112200000
4ABEFFFFFFE800
9FFFFFFFFFFF80
5FFFFFFFFFDB40
07964221100000
ENDCHAR
STARTCHAR emdash
ENCODING 8212
SWIDTH 878 0
DWIDTH 21 0
BBX 20 5 0 4
BITMAP
00001344444444210000
6EEFFFFFFFFFFFFFEB20
6FFFFFFFFFFFFFFFFFF8
1CFFFFFFEEEEEEDDCA83
00564210000000000000
ENDCHAR
STARTCHAR quoteleft
ENCODING 8216
SWIDTH 203 0
DWIDTH 5 0
BBX 6 9 2 10
BITMAP
001200
03EFA3
0CFFF7
4FFFE1
8FFF60
CFFD00
CFF800
6DF400
001000
ENDCHAR
STARTCHAR quoteright
ENCODING 8217
SWIDTH 199 0
DWIDTH 5 0
BBX 7 9 1 10
BITMAP
00010000
003EC600
007FFF30
00BFFF30
01FFFE00
08FFF700
2FFFD000
1AFE3000
00310000
ENDCHAR
STARTCHAR quotesinglbase
ENCODING 8218
SWIDTH 204 0
DWIDTH 5 0
BBX 6 9 -3 -5
BITMAP
000400
009FD6
00DFFD
02FFFD
07FFF8
1DFFE1
8FFF80
1AF900
001000
ENDCHAR
STARTCHAR quotedblleft
ENCODING 8220
SWIDTH 410 0
DWIDTH 10 0
BBX 11 9 2 10
BITMAP
002000011000
06FD804EF920
0EFFF1DFFF70
5FFFA4FFFE10
8FFF39FFF600
BFFC0DFFD000
CFF70CFF7000
9FF406EF4000
168100010000
ENDCHAR
STARTCHAR quotedblright
ENCODING 8221
SWIDTH 425 0
DWIDTH 10 0
BBX 12 9 1 10
BITMAP
000100000100
003EC6008F93
007FFF30EFFA
00BFFF35FFF9
01FFFE0BFFF4
08FFF75FFFA0
2FFFD2EFFE10
1AFE31BFE300
003100041000
ENDCHAR
STARTCHAR quotedblbase
ENCODING 8222
SWIDTH 430 0
DWIDTH 10 0
BBX 12 9 -3 -5
BITMAP
000400002200
009FD600EFB2
00DFFD05FFF6
02FFFD0BFFF4
07FFF83FFFC0
1DFFE2BFFF30
8FFF87FFF800
1AF901BF9000
001000020000
ENDCHAR
STARTCHAR bullet
ENCODING 8226
SWIDTH 299 0
DWIDTH 7 0
BBX 6 6 0 4
BITMAP
02BB40
0BFFE3
2FFFFB
1FFFF8
0EFFF3
046430
ENDCHAR
STARTCHAR ellipsis
ENCODING 8230
SWIDTH 768 0
DWIDTH 18 0
BBX 18 5 -1 -1
BITMAP
068400019620006840
5FFF701BFFE005FFF7
8FFF501FFFC008FFF5
3FFE100AFF8003FFE1
059200019600005910
ENDCHAR
STARTCHAR perthousand
ENCODING 8240
SWIDTH 889 0
DWIDTH 21 0
BBX 21 18 1 0
BITMAP
0000100000000000000000
0004D90000001890000000
006FFE000001BFA0000000
07FFFF40001BFF70000000
3FFCEFC001BFFE20000000
AFF6CFF10AFFD200000000
CFFFFFE1AFFD2000000000
7FFFFC4AFFC10000000000
046520BFFC100000000000
00000AFFC1000000000000
0001BFFC13C7000009C100
001CFFB15EFD0001BFF500
02DFFB16FFFF201DFFF900
0CFFA03FFDEFA0BFFCFF20
6FFC00AFF4CFF4FF97FF70
CFF500CFFFFFF7FFFFFF70
FFF2009FFFFE53FFFFFA10
AD60000687400038862000
ENDCHAR
STARTCHAR guilsinglleft
ENCODING 8249
SWIDTH 322 0
DWIDTH 8 0
BBX 8 12 -1 -1
BITMAP
00000012
000003ED
00003EFF
0007EFF8
05CFFF90
2FFFE600
2FFF3000
0CFFD300
02DFFE20
001BFF90
00007EE0
00000250
ENDCHAR
STARTCHAR guilsinglright
ENCODING 8250
SWIDTH 341 0
DWIDTH 8 0
BBX 8 12 -1 -1
BITMAP
01200000
06F81000
02FFE300
00AFFF50
001BFFF3
0000AFFA
0008FFFB
01BFFFB4
1CFFE500
6FFC1000
6FB10000
06100000
ENDCHAR
STARTCHAR fraction
ENCODING 8260
SWIDTH 541 0
DWIDTH 13 0
BBX 13 19 0 -1
BITMAP
00000000000540
00000000006FA0
0000000004FFB0
000000002EFF90
00000000DFFE30
00000008FFF400
0000005FFF6000
000003EFF90000
00001DFFB00000
0000AFFE100000
0009FFE3000000
007FFF50000000
05FFF700000000
1EFFA000000000
6FFD1000000000
AFFA0000000000
BFF80000000000
7FF30000000000
03300000000000
ENDCHAR
STARTCHAR Euro
ENCODING 8364
SWIDTH 565 0
DWIDTH 14 0
BBX 14 15 -1 0
BITMAP
00000000002610
0000000006EFD2
00000004DFFFFC
000002BFFFFFF9
00003EFFFFFD81
0002DFFFFB4000
000AFFFE700000
157FFFFDCA8100
5FFFFFFFFFFD20
3FFFFFFFFFFC20
07BFFD63320000
000AFFFECAA940
0002EFFFFFFFE2
00002CFFFFFFE2
000000269BA930
ENDCHAR
STARTCHAR Delta
ENCODING 8710
SWIDTH 403 0
DWIDTH 10 0
BBX 14 16 -1 -1
BITMAP
00000245566410
000BEFFFFFFFE3
000DFFFFFFFFFC
0008FFFFFDA861
000031AFF60000
000000EFF20000
000003FFD00000
000008FF800000
00000EFF400000
00005FFE100000
0000BFF9000000
0003FFF7200000
7BDEFFFFE50000
BFFFFFFFFA0000
6FFFCAA8710000
05300000000000
ENDCHAR
STARTCHAR minus
ENCODING 8722
SWIDTH 548 0
DWIDTH 13 0
BBX 14 5 -1 4
BITMAP
00000011210000
09ACFFFFFFFC20
1FFFFFFFFFFFE2
0DFFFFFFFFEC91
03975321100000
ENDCHAR
STARTCHAR approxequal
ENCODING 8776
SWIDTH 323 0
DWIDTH 8 0
BBX 7 19 0 -1
BITMAP
00002300
0005FC00
000DFF30
004FFF80
008FFFA0
00AFFFD0
00DFFF80
03FFFF30
06FFFE00
0AFFFA00
0DFFF600
0EFFF400
0FFFF200
1FFFF100
0EFFF100
0AFFF300
05FFF400
01EFB100
00120000
ENDCHAR
STARTCHAR fi
ENCODING 64257
SWIDTH 810 0
DWIDTH 19 0
BBX 20 16 -1 -1
BITMAP
00000000035884000400
0000026AEFFFFF70AF40
0027CFFFFFFFFFF3FFA0
00DFFFFFFEB97746FFD0
00CFFFFA3000000AFFF2
002DFFF20000000DFFD0
0005FFC00000002FFF80
035BFFB46891006FFF40
4FFFFFFFFFFA009FFE00
5FFFFFFFFFF600BFFC00
1DFFFFEB964000BFFA00
05FFD200000000DFF900
08FF8000000000AFFA00
09FF40000000005FFB00
02FF20000000001EF800
00230000000000033000
ENDCHAR
STARTCHAR fl
ENCODING 64258
SWIDTH 1012 0
DWIDTH 24 0
BBX 25 16 -1 -1
BITMAP
00000000035884005200000000
0000026AEFFFFF71FFC1000000
0027CFFFFFFFFFF7FFF6000000
00DFFFFFFEB9774BFFF2000000
00CFFFFA3000001FFFB0000000
002DFFF20000006FFF50000000
0005FFC0000000CFFE10000000
035BFFB4689102FFF900000000
4FFFFFFFFFFA07FFF400000000
5FFFFFFFFFF60CFFD000000000
1DFFFFEB96401FFF9000000000
05FFD20000003FFFA7BDDEA300
08FF800000002FFFFFFFFFFF70
09FF400000000CFFFFFFFFFFB0
02FF2000000004FFFFC9879830
00230000000000254200000000
ENDCHAR
STARTCHAR .notdef
ENCODING -1
SWIDTH 370 0
DWIDTH 9 0
BBX 1 1 0 0
BITMAP
00
ENDCHAR
ENDFONT
